<svg width="20" height="20" viewBox="0 0 20 20" fill="none" xmlns="http://www.w3.org/2000/svg">
<path d="M13.3333 1.6665C11.0333 1.6665 9.16658 3.53317 9.16658 5.83317C9.16658 8.13317 11.0333 9.99984 13.3333 9.99984C15.6333 9.99984 17.4999 8.13317 17.4999 5.83317C17.4999 3.53317 15.6333 1.6665 13.3333 1.6665ZM13.3333 8.33317C11.9499 8.33317 10.8333 7.2165 10.8333 5.83317C10.8333 4.44984 11.9499 3.33317 13.3333 3.33317C14.7166 3.33317 15.8333 4.44984 15.8333 5.83317C15.8333 7.2165 14.7166 8.33317 13.3333 8.33317ZM15.8333 13.3332H14.1666C14.1666 12.3332 13.5416 11.4332 12.6083 11.0832L7.47492 9.1665H0.833252V18.3332H5.83325V17.1332L11.6666 18.7498L18.3333 16.6665V15.8332C18.3333 14.4498 17.2166 13.3332 15.8333 13.3332ZM4.16659 16.6665H2.49992V10.8332H4.16659V16.6665ZM11.6416 17.0082L5.83325 15.4165V10.8332H7.17492L12.0249 12.6415C12.3083 12.7498 12.4999 13.0248 12.4999 13.3332C12.4999 13.3332 10.8333 13.2915 10.5833 13.2082L8.59992 12.5498L8.07492 14.1332L10.0583 14.7915C10.4833 14.9332 10.9249 14.9998 11.3749 14.9998H15.8333C16.1583 14.9998 16.4499 15.1998 16.5833 15.4748L11.6416 17.0082Z" fill="#8F48C6"/>
</svg>
