<svg width="299" height="284" viewBox="0 0 299 284" fill="none" xmlns="http://www.w3.org/2000/svg">
<path d="M153.242 0.579254L139.528 3.57007C137.679 3.97331 136.496 5.85275 136.885 7.76792L139.773 21.9726C140.162 23.8878 141.977 25.1135 143.826 24.7102L157.54 21.7194C159.389 21.3162 160.572 19.4367 160.183 17.5216L157.295 3.31684C156.906 1.40167 155.091 0.176013 153.242 0.579254Z" stroke="#263238" stroke-linecap="round" stroke-linejoin="round"/>
<path d="M147.665 8.3294L149.413 16.9486" stroke="#263238" stroke-linecap="round" stroke-linejoin="round"/>
<path d="M152.7 11.7271L144.378 13.5442" stroke="#263238" stroke-linecap="round" stroke-linejoin="round"/>
<path d="M291.487 152.454L277.773 155.445C275.924 155.848 274.74 157.728 275.13 159.643L278.017 173.848C278.406 175.763 280.221 176.989 282.07 176.585L295.784 173.595C297.633 173.191 298.816 171.312 298.427 169.397L295.539 155.192C295.15 153.277 293.336 152.051 291.487 152.454Z" stroke="#263238" stroke-linecap="round" stroke-linejoin="round"/>
<path d="M289.109 160.815L284.465 168.195" stroke="#263238" stroke-linecap="round" stroke-linejoin="round"/>
<path d="M290.346 166.914L283.221 162.096" stroke="#263238" stroke-linecap="round" stroke-linejoin="round"/>
<path d="M106.328 244.92L92.3133 244.049C90.4238 243.932 88.8001 245.423 88.6867 247.381L87.8458 261.897C87.7324 263.854 89.1723 265.536 91.0619 265.653L105.077 266.524C106.966 266.642 108.59 265.15 108.703 263.193L109.544 248.677C109.657 246.72 108.218 245.038 106.328 244.92Z" stroke="#263238" stroke-width="1.0018" stroke-linecap="round" stroke-linejoin="round"/>
<path d="M103.416 254.763L94.9201 254.255" stroke="#263238" stroke-linecap="round" stroke-linejoin="round"/>
<path d="M22.7066 143.878L9.403 139.312C7.60933 138.697 5.67354 139.704 5.07929 141.562L0.671814 155.342C0.0775703 157.199 1.0499 159.204 2.84358 159.82L16.1472 164.385C17.9409 165.001 19.8767 163.994 20.4709 162.136L24.8784 148.356C25.4726 146.498 24.5003 144.493 22.7066 143.878Z" stroke="#263238" stroke-linecap="round" stroke-linejoin="round"/>
<path d="M18.0977 149.084L7.45731 154.619" stroke="#263238" stroke-linecap="round" stroke-linejoin="round"/>
<path d="M11.9945 146.842C12.1221 147.115 12.1693 147.42 12.1301 147.72C12.091 148.02 11.9673 148.301 11.7744 148.529C11.5816 148.756 11.3283 148.92 11.0461 148.999C10.764 149.078 10.4656 149.069 10.1883 148.974C9.91095 148.878 9.66708 148.699 9.48718 148.461C9.30729 148.222 9.19935 147.934 9.1769 147.632C9.15445 147.33 9.21848 147.028 9.36097 146.764C9.50346 146.499 9.71808 146.285 9.97796 146.146C10.1538 146.051 10.3464 145.994 10.544 145.978C10.7417 145.961 10.9405 145.986 11.1287 146.051C11.3168 146.116 11.4904 146.22 11.6391 146.356C11.7879 146.491 11.9087 146.657 11.9945 146.842V146.842Z" stroke="#263238" stroke-linecap="round" stroke-linejoin="round"/>
<path d="M16.216 155.517C16.3436 155.789 16.3908 156.095 16.3516 156.395C16.3125 156.695 16.1888 156.976 15.9959 157.204C15.8031 157.431 15.5498 157.595 15.2676 157.674C14.9855 157.753 14.6871 157.744 14.4098 157.648C14.1325 157.553 13.8886 157.374 13.7087 157.136C13.5288 156.897 13.4209 156.609 13.3984 156.307C13.376 156.005 13.44 155.703 13.5825 155.439C13.725 155.174 13.9396 154.959 14.1995 154.821C14.3753 154.726 14.5679 154.669 14.7655 154.652C14.9632 154.636 15.1621 154.661 15.3502 154.726C15.5383 154.791 15.7119 154.895 15.8607 155.03C16.0094 155.166 16.1302 155.332 16.216 155.517V155.517Z" stroke="#263238" stroke-linecap="round" stroke-linejoin="round"/>
<path d="M154.111 240.685C152.72 242.772 150.762 244.385 148.486 245.32C146.21 246.255 143.718 246.469 141.324 245.937C138.93 245.405 136.742 244.149 135.037 242.329C133.332 240.509 132.186 238.206 131.744 235.712C131.303 233.217 131.585 230.643 132.556 228.315C133.526 225.986 135.142 224.008 137.197 222.631C139.253 221.253 141.657 220.538 144.105 220.575C146.554 220.613 148.936 221.401 150.952 222.841C153.655 224.774 155.506 227.74 156.098 231.086C156.691 234.432 155.976 237.885 154.111 240.685Z" fill="#9E54E8"/>
<path opacity="0.3" d="M152.498 239.53C151.326 241.285 149.678 242.641 147.762 243.426C145.846 244.211 143.749 244.39 141.735 243.941C139.721 243.492 137.88 242.434 136.447 240.901C135.013 239.369 134.05 237.43 133.68 235.331C133.31 233.231 133.549 231.065 134.367 229.107C135.185 227.148 136.545 225.485 138.276 224.327C140.006 223.169 142.03 222.569 144.09 222.602C146.15 222.635 148.154 223.299 149.85 224.512C152.123 226.14 153.678 228.637 154.175 231.453C154.672 234.269 154.068 237.174 152.498 239.53Z" fill="black" fill-opacity="0.7"/>
<path d="M152.498 239.53C151.326 241.285 149.678 242.641 147.762 243.426C145.846 244.211 143.749 244.39 141.735 243.941C139.721 243.492 137.88 242.434 136.447 240.901C135.013 239.369 134.05 237.43 133.68 235.331C133.31 233.231 133.549 231.065 134.367 229.107C135.185 227.148 136.545 225.485 138.276 224.327C140.006 223.169 142.03 222.569 144.09 222.602C146.15 222.635 148.154 223.299 149.85 224.512C152.123 226.14 153.678 228.637 154.175 231.453C154.672 234.269 154.068 237.174 152.498 239.53V239.53Z" stroke="#263238" stroke-linecap="round" stroke-linejoin="round"/>
<path d="M146.596 228L147.101 227.255L148.351 228.146L147.847 228.898C148.781 229.908 148.761 231.168 147.847 232.533L147.632 232.853L146.186 231.815L146.469 231.398C146.946 230.702 146.852 230.207 146.368 229.859C145.884 229.511 145.42 229.581 144.936 230.305C144.452 231.029 144.398 231.697 144.862 233.312C145.42 235.248 145.319 236.348 144.553 237.49C143.639 238.882 142.483 239.328 141.246 238.785L140.755 239.516L139.525 238.631L140.016 237.893C139.068 236.877 139.102 235.603 140.016 234.231L140.473 233.535L141.918 234.573L141.394 235.359C140.91 236.055 141.044 236.557 141.528 236.912C142.012 237.267 142.496 237.218 142.98 236.494C143.464 235.77 143.525 235.06 143.054 233.486C142.483 231.572 142.59 230.458 143.363 229.309C144.23 227.958 145.366 227.478 146.596 228Z" fill="#9E54E8" stroke="#263238" stroke-linecap="round" stroke-linejoin="round"/>
<path opacity="0.2" d="M140.473 222.994C140.474 225.992 139.723 228.939 138.292 231.545C136.862 234.151 134.801 236.327 132.313 237.859C131.722 236.214 131.464 234.461 131.554 232.708C131.645 230.956 132.082 229.241 132.838 227.671C133.594 226.1 134.653 224.708 135.951 223.579C137.248 222.45 138.755 221.609 140.379 221.108C140.444 221.734 140.476 222.364 140.473 222.994Z" fill="black" fill-opacity="0.7"/>
<path d="M154.111 240.685C152.72 242.772 150.762 244.385 148.486 245.32C146.21 246.255 143.718 246.469 141.324 245.937C138.93 245.405 136.742 244.149 135.037 242.329C133.332 240.509 132.186 238.206 131.744 235.712C131.303 233.217 131.585 230.643 132.556 228.315C133.526 225.986 135.142 224.008 137.197 222.631C139.253 221.253 141.657 220.538 144.105 220.575C146.554 220.613 148.936 221.401 150.952 222.841C153.655 224.774 155.506 227.74 156.098 231.086C156.691 234.432 155.976 237.885 154.111 240.685V240.685Z" stroke="#263238" stroke-linecap="round" stroke-linejoin="round"/>
<path d="M126.243 235.429C133.085 235.429 138.631 229.684 138.631 222.598C138.631 215.511 133.085 209.766 126.243 209.766C119.401 209.766 113.855 215.511 113.855 222.598C113.855 229.684 119.401 235.429 126.243 235.429Z" fill="#9E54E8" stroke="#263238" stroke-linecap="round" stroke-linejoin="round"/>
<path opacity="0.3" d="M126.243 233.389C131.997 233.389 136.662 228.557 136.662 222.598C136.662 216.638 131.997 211.806 126.243 211.806C120.489 211.806 115.825 216.638 115.825 222.598C115.825 228.557 120.489 233.389 126.243 233.389Z" fill="black" fill-opacity="0.7"/>
<path d="M126.243 233.389C131.997 233.389 136.662 228.557 136.662 222.598C136.662 216.638 131.997 211.806 126.243 211.806C120.489 211.806 115.825 216.638 115.825 222.598C115.825 228.557 120.489 233.389 126.243 233.389Z" stroke="#263238" stroke-linecap="round" stroke-linejoin="round"/>
<path d="M125.483 216.589V215.684H127.002V216.589C128.347 216.875 129.019 217.919 129.019 219.583V219.945H127.258V219.437C127.258 218.559 126.922 218.225 126.33 218.225C125.739 218.225 125.403 218.559 125.403 219.437C125.403 220.314 125.739 220.92 126.989 221.957C128.508 223.217 129.006 224.178 129.006 225.577C129.006 227.241 128.333 228.313 126.989 228.592V229.483H125.47V228.592C124.126 228.313 123.453 227.241 123.453 225.577V224.742H125.208V225.703C125.208 226.58 125.577 226.893 126.169 226.893C126.761 226.893 127.137 226.58 127.137 225.703C127.137 224.825 126.801 224.199 125.544 223.182C124.025 221.936 123.527 220.961 123.527 219.555C123.521 217.94 124.179 216.889 125.483 216.589Z" fill="#9E54E8" stroke="#263238" stroke-linecap="round" stroke-linejoin="round"/>
<path d="M195.769 233.375C199.46 227.409 197.782 219.472 192.022 215.649C186.261 211.826 178.599 213.564 174.908 219.53C171.216 225.497 172.894 233.433 178.655 237.257C184.415 241.08 192.078 239.342 195.769 233.375Z" fill="#9E54E8" stroke="#263238" stroke-linecap="round" stroke-linejoin="round"/>
<path opacity="0.3" d="M192.969 219.116C194.372 220.68 195.295 222.64 195.623 224.747C195.95 226.855 195.667 229.015 194.809 230.956C193.951 232.897 192.556 234.53 190.801 235.65C189.047 236.769 187.011 237.325 184.952 237.246C182.892 237.167 180.902 236.457 179.232 235.206C177.562 233.956 176.287 232.22 175.57 230.219C174.852 228.218 174.724 226.041 175.201 223.965C175.678 221.888 176.738 220.005 178.249 218.552C179.25 217.587 180.426 216.836 181.708 216.341C182.991 215.847 184.355 215.62 185.722 215.672C187.089 215.724 188.433 216.056 189.677 216.647C190.92 217.238 192.039 218.077 192.969 219.116Z" fill="black" fill-opacity="0.7"/>
<path d="M192.969 219.116C194.372 220.68 195.295 222.64 195.623 224.747C195.95 226.855 195.667 229.015 194.809 230.956C193.951 232.897 192.556 234.53 190.801 235.65C189.047 236.769 187.011 237.325 184.952 237.246C182.892 237.167 180.902 236.457 179.232 235.206C177.562 233.956 176.287 232.22 175.57 230.219C174.852 228.218 174.724 226.041 175.201 223.965C175.678 221.888 176.738 220.005 178.249 218.552C179.25 217.587 180.426 216.836 181.708 216.341C182.991 215.847 184.355 215.62 185.722 215.672C187.089 215.724 188.433 216.056 189.677 216.647C190.92 217.238 192.039 218.077 192.969 219.116V219.116Z" stroke="#263238" stroke-linecap="round" stroke-linejoin="round"/>
<path d="M180.836 222.598L180.238 221.901L181.347 220.829L181.945 221.525C183.102 220.829 184.285 221.094 185.374 222.312L185.629 222.591L184.345 223.83L184.009 223.461C183.431 222.82 182.967 222.813 182.537 223.231C182.107 223.649 182.073 224.129 182.645 224.77C183.216 225.41 183.875 225.619 185.468 225.501C187.41 225.348 188.425 225.682 189.346 226.712C190.435 227.931 190.63 229.198 189.85 230.333L190.435 230.987L189.319 232.059L188.734 231.405C187.572 232.143 186.375 231.836 185.286 230.618L184.728 230.005L186.019 228.766L186.651 229.462C187.229 230.103 187.706 230.075 188.143 229.657C188.58 229.239 188.64 228.745 188.062 228.105C187.484 227.464 186.825 227.241 185.246 227.408C183.31 227.569 182.282 227.22 181.367 226.19C180.285 224.965 180.077 223.732 180.836 222.598Z" fill="#9E54E8" stroke="#263238" stroke-linecap="round" stroke-linejoin="round"/>
<path opacity="0.2" d="M180.238 170.688C180.238 170.688 180.184 197.311 180.238 198.864C180.292 200.416 182.255 209.766 182.255 209.766L176.01 221.686L181.388 226.169L191.84 215.531C191.84 215.531 200.739 221.219 202.366 229.365C203.993 237.511 213.679 243.442 223.728 266C233.776 288.557 245.237 215.531 245.237 215.531L214.23 175.095L180.238 170.688Z" fill="black" fill-opacity="0.7"/>
<path d="M275.027 27.6564L265.53 123.651L259.689 182.704L178.06 174.043L162.177 172.358L152.007 171.279L161.021 80.1444L167.346 16.2315L275.027 27.6564Z" fill="white"/>
<path d="M243.751 31.2699L197.271 26.3337C197.064 26.3118 196.854 26.3324 196.654 26.3943C196.455 26.4563 196.269 26.5584 196.107 26.6948C195.945 26.8312 195.811 26.9992 195.712 27.1893C195.613 27.3794 195.551 27.5879 195.53 27.8027C195.509 28.0176 195.529 28.2347 195.589 28.4416C195.648 28.6485 195.747 28.8411 195.879 29.0086C196.01 29.176 196.173 29.315 196.356 29.4174C196.54 29.5199 196.741 29.584 196.948 29.6059L243.429 34.5421C243.848 34.5864 244.267 34.4566 244.593 34.1811C244.92 33.9056 245.127 33.507 245.17 33.0731C245.213 32.6392 245.087 32.2054 244.821 31.8673C244.555 31.5291 244.17 31.3142 243.751 31.2699Z" fill="#263238"/>
<path d="M231.464 36.7352L208.228 34.2636C208.017 34.2422 207.807 34.3078 207.644 34.4461C207.48 34.5843 207.376 34.784 207.354 35.0016C207.344 35.1091 207.354 35.2175 207.384 35.3208C207.414 35.4241 207.464 35.5202 207.53 35.6036C207.596 35.6871 207.678 35.7561 207.77 35.8069C207.862 35.8578 207.962 35.8893 208.066 35.8998L231.303 38.3713C231.513 38.3927 231.723 38.3272 231.887 38.1889C232.051 38.0506 232.155 37.8509 232.177 37.6333C232.188 37.5257 232.178 37.4169 232.148 37.3132C232.118 37.2095 232.069 37.1131 232.003 37.0295C231.936 36.9458 231.854 36.8768 231.762 36.8262C231.67 36.7757 231.568 36.7448 231.464 36.7352Z" fill="#263238"/>
<path d="M257.04 107.582L181.596 99.5759C181.392 99.5519 181.186 99.6111 181.023 99.741C180.86 99.8709 180.752 100.061 180.722 100.272C180.701 100.49 180.765 100.707 180.898 100.877C181.032 101.046 181.225 101.154 181.435 101.177L256.879 109.246C256.983 109.257 257.087 109.246 257.187 109.215C257.287 109.183 257.379 109.132 257.46 109.064C257.541 108.995 257.607 108.911 257.656 108.815C257.705 108.72 257.736 108.616 257.746 108.508C257.761 108.399 257.754 108.288 257.727 108.181C257.699 108.075 257.651 107.975 257.585 107.889C257.519 107.802 257.436 107.73 257.343 107.678C257.249 107.625 257.146 107.593 257.04 107.582Z" fill="#263238"/>
<path d="M256.482 113.465L168.731 104.157C168.627 104.145 168.523 104.155 168.423 104.186C168.324 104.216 168.231 104.267 168.15 104.335C168.069 104.403 168.003 104.487 167.953 104.582C167.904 104.677 167.874 104.781 167.864 104.888C167.841 105.1 167.898 105.312 168.023 105.481C168.149 105.65 168.332 105.762 168.536 105.793L256.261 115.102C256.364 115.113 256.469 115.102 256.569 115.071C256.669 115.04 256.762 114.989 256.843 114.921C256.923 114.853 256.991 114.769 257.04 114.674C257.09 114.579 257.12 114.475 257.131 114.367C257.142 114.26 257.132 114.151 257.102 114.048C257.072 113.944 257.023 113.848 256.957 113.764C256.891 113.68 256.81 113.611 256.718 113.56C256.626 113.508 256.526 113.476 256.422 113.465H256.482Z" fill="#263238"/>
<path d="M231.31 116.745L168.126 110.04C167.916 110.017 167.707 110.081 167.543 110.218C167.379 110.355 167.274 110.554 167.252 110.771C167.23 110.988 167.292 111.205 167.424 111.375C167.556 111.545 167.748 111.653 167.958 111.676L231.142 118.381C231.245 118.391 231.35 118.381 231.45 118.349C231.549 118.318 231.642 118.266 231.723 118.198C231.803 118.129 231.87 118.045 231.919 117.95C231.968 117.855 231.999 117.75 232.009 117.643C232.02 117.536 232.011 117.428 231.982 117.326C231.952 117.223 231.904 117.127 231.839 117.043C231.774 116.96 231.694 116.891 231.603 116.839C231.512 116.788 231.412 116.756 231.31 116.745Z" fill="#263238"/>
<path d="M167.157 116.384L164.591 142.329L253.029 151.714L255.595 125.77L167.157 116.384Z" fill="#BFBFBF" stroke="#263238" stroke-miterlimit="10"/>
<path d="M207.712 86.3629C216.066 79.1538 217.196 66.2953 210.236 57.6426C203.276 48.9899 190.861 47.8197 182.508 55.0288C174.154 62.238 173.024 75.0965 179.984 83.7491C186.944 92.4018 199.359 93.572 207.712 86.3629Z" fill="#9E54E8"/>
<path opacity="0.5" d="M207.712 86.3629C216.066 79.1538 217.196 66.2953 210.236 57.6426C203.276 48.9899 190.861 47.8197 182.508 55.0288C174.154 62.238 173.024 75.0965 179.984 83.7491C186.944 92.4018 199.359 93.572 207.712 86.3629Z" fill="white"/>
<path d="M207.712 86.3629C216.066 79.1538 217.196 66.2953 210.236 57.6426C203.276 48.9899 190.861 47.8197 182.508 55.0288C174.154 62.238 173.024 75.0965 179.984 83.7491C186.944 92.4018 199.359 93.572 207.712 86.3629Z" stroke="#263238" stroke-miterlimit="10"/>
<path d="M195.678 70.6481L212.052 79.1768C213.58 75.8906 214.187 72.2263 213.804 68.6006C213.422 64.9748 212.065 61.5329 209.888 58.6662L195.678 70.6481Z" fill="white"/>
<path d="M195.786 69.729L209.498 58.1718C207.45 55.645 204.816 53.6995 201.842 52.5185L199.348 59.5503L195.786 69.729Z" fill="#9E54E8"/>
<path d="M197.331 51.3767L195.678 68.1694L201.257 52.2887C199.984 51.8392 198.668 51.5335 197.331 51.3767Z" fill="#757575"/>
<path d="M194.824 70.4948L196.726 51.307C193.486 51.0251 190.229 51.6179 187.276 53.0275C184.322 54.4371 181.771 56.6155 179.872 59.3503C177.973 62.0851 176.791 65.2828 176.44 68.6319C176.09 71.9809 176.583 75.3668 177.872 78.4596L194.824 70.4948Z" fill="#999999"/>
<path d="M193.198 90.0865C196.936 90.4804 200.703 89.7062 204.013 87.8636C207.322 86.021 210.024 83.1944 211.77 79.7476L195.107 71.0658L178.121 79.0584C179.508 82.083 181.624 84.6866 184.264 86.6181C186.905 88.5497 189.982 89.7442 193.198 90.0865Z" fill="#BFBFBF"/>
<path d="M226.703 57.4648L224.463 57.2271C224.231 57.2024 224.023 57.3777 223.999 57.6187L223.769 59.9389C223.746 60.1799 223.915 60.3952 224.148 60.4199L226.388 60.6576C226.62 60.6823 226.828 60.507 226.852 60.266L227.081 57.9458C227.105 57.7048 226.936 57.4895 226.703 57.4648Z" fill="#9E54E8" stroke="#263238" stroke-miterlimit="10"/>
<path d="M257.914 61.9592L228.971 58.8889C228.902 58.8566 228.846 58.8029 228.809 58.7354C228.772 58.668 228.757 58.5902 228.765 58.5131C228.773 58.4361 228.805 58.3636 228.855 58.3061C228.905 58.2486 228.971 58.2089 229.044 58.1927L257.988 61.2073C258.075 61.2251 258.153 61.276 258.206 61.3501C258.259 61.4242 258.283 61.5162 258.274 61.6078C258.264 61.6995 258.222 61.7842 258.156 61.8454C258.089 61.9065 258.003 61.9397 257.914 61.9383V61.9592Z" fill="#263238"/>
<path d="M254.923 63.2542L228.816 60.4693C228.723 60.4588 228.637 60.4104 228.578 60.3348C228.519 60.2592 228.491 60.1624 228.5 60.0655C228.504 60.0172 228.518 59.9703 228.54 59.9275C228.562 59.8847 228.592 59.847 228.628 59.8164C228.665 59.7859 228.706 59.7633 228.751 59.7499C228.796 59.7364 228.843 59.7325 228.89 59.7383L254.997 62.5232C255.084 62.5409 255.162 62.5919 255.215 62.666C255.268 62.7401 255.292 62.832 255.283 62.9237C255.273 63.0153 255.231 63.1001 255.165 63.1612C255.098 63.2224 255.012 63.2555 254.923 63.2542Z" fill="#263238"/>
<path d="M225.997 64.6146L223.757 64.3769C223.524 64.3522 223.316 64.5275 223.292 64.7685L223.063 67.0887C223.039 67.3297 223.208 67.5451 223.441 67.5697L225.681 67.8075C225.913 67.8322 226.121 67.6568 226.145 67.4158L226.375 65.0957C226.399 64.8547 226.229 64.6393 225.997 64.6146Z" fill="#757575" stroke="#263238" stroke-linecap="round" stroke-linejoin="round"/>
<path d="M257.208 69.1094L228.251 66.0391C228.164 66.0213 228.086 65.9704 228.033 65.8963C227.98 65.8221 227.956 65.7302 227.966 65.6386C227.975 65.5469 228.017 65.4622 228.083 65.401C228.15 65.3399 228.236 65.3067 228.325 65.3081L257.262 68.3784C257.356 68.3889 257.442 68.437 257.502 68.5124C257.563 68.5878 257.592 68.6846 257.585 68.7822C257.574 68.8764 257.53 68.9629 257.46 69.0238C257.389 69.0847 257.299 69.1154 257.208 69.1094Z" fill="#263238"/>
<path d="M254.21 70.4113L228.11 67.6265C228.016 67.6172 227.929 67.5695 227.868 67.4938C227.808 67.418 227.779 67.3205 227.787 67.2227C227.796 67.1248 227.842 67.0346 227.916 66.9719C227.989 66.9093 228.083 66.8792 228.177 66.8885L254.284 69.6734C254.331 69.6784 254.376 69.6929 254.418 69.7161C254.459 69.7393 254.496 69.7707 254.525 69.8085C254.555 69.8463 254.577 69.8898 254.591 69.9365C254.604 69.9832 254.608 70.0322 254.604 70.0806C254.599 70.1291 254.585 70.1761 254.562 70.2189C254.54 70.2618 254.51 70.2996 254.473 70.3303C254.437 70.361 254.395 70.384 254.35 70.3979C254.304 70.4118 254.257 70.4164 254.21 70.4113Z" fill="#263238"/>
<path d="M225.29 71.7714L223.05 71.5337C222.817 71.509 222.609 71.6844 222.586 71.9253L222.356 74.2455C222.332 74.4865 222.502 74.7019 222.734 74.7266L224.974 74.9643C225.207 74.989 225.415 74.8136 225.439 74.5727L225.668 72.2525C225.692 72.0115 225.523 71.7961 225.29 71.7714Z" fill="#999999" stroke="#263238" stroke-linecap="round" stroke-linejoin="round"/>
<path d="M256.482 76.2666L227.579 73.1893C227.53 73.1885 227.481 73.1771 227.436 73.1558C227.391 73.1344 227.351 73.1036 227.318 73.0653C227.285 73.0269 227.26 72.9819 227.245 72.9332C227.23 72.8844 227.225 72.8328 227.23 72.7819C227.235 72.7309 227.25 72.6816 227.275 72.6372C227.3 72.5927 227.333 72.554 227.373 72.5235C227.412 72.4931 227.458 72.4716 227.506 72.4603C227.554 72.4491 227.604 72.4484 227.653 72.4583L256.59 75.5286C256.637 75.5336 256.682 75.5481 256.723 75.5713C256.765 75.5945 256.801 75.6259 256.831 75.6637C256.86 75.7016 256.883 75.7451 256.896 75.7918C256.909 75.8384 256.914 75.8874 256.909 75.9359C256.904 75.9843 256.89 76.0313 256.868 76.0742C256.845 76.117 256.815 76.1549 256.779 76.1856C256.742 76.2163 256.7 76.2392 256.655 76.2531C256.61 76.267 256.563 76.2716 256.516 76.2666H256.482Z" fill="#263238"/>
<path d="M253.505 77.5615L227.398 74.7766C227.304 74.7661 227.218 74.7177 227.159 74.6421C227.1 74.5665 227.072 74.4697 227.082 74.3728C227.092 74.2755 227.138 74.1862 227.211 74.1238C227.284 74.0614 227.377 74.0308 227.472 74.0386L253.579 76.8235C253.673 76.8337 253.76 76.8823 253.82 76.9587C253.879 77.0351 253.908 77.1329 253.898 77.2308C253.888 77.3287 253.841 77.4185 253.767 77.4805C253.694 77.5425 253.599 77.5717 253.505 77.5615Z" fill="#263238"/>
<path d="M224.583 78.9274L222.343 78.6897C222.11 78.665 221.902 78.8403 221.878 79.0813L221.649 81.4015C221.625 81.6425 221.794 81.8578 222.027 81.8825L224.267 82.1202C224.5 82.1449 224.708 81.9696 224.731 81.7286L224.961 79.4084C224.985 79.1674 224.816 78.9521 224.583 78.9274Z" fill="#BFBFBF" stroke="#263238" stroke-miterlimit="10"/>
<path d="M255.81 83.4167L226.873 80.3464C226.826 80.342 226.781 80.3281 226.739 80.3054C226.698 80.2827 226.661 80.2516 226.631 80.2141C226.601 80.1766 226.578 80.1332 226.564 80.0866C226.551 80.04 226.546 79.9911 226.551 79.9426C226.561 79.8452 226.607 79.7559 226.68 79.6935C226.753 79.6311 226.846 79.6005 226.94 79.6084L255.884 82.6857C255.933 82.6864 255.982 82.6978 256.027 82.7192C256.072 82.7405 256.112 82.7714 256.145 82.8097C256.178 82.848 256.203 82.893 256.218 82.9418C256.233 82.9906 256.238 83.0421 256.233 83.0931C256.228 83.144 256.213 83.1933 256.188 83.2378C256.163 83.2823 256.13 83.321 256.09 83.3514C256.051 83.3819 256.005 83.4034 255.957 83.4146C255.909 83.4259 255.859 83.4266 255.81 83.4167Z" fill="#263238"/>
<path d="M252.799 84.7116L226.692 81.9267C226.604 81.909 226.527 81.858 226.474 81.7839C226.421 81.7098 226.397 81.6179 226.406 81.5262C226.415 81.4346 226.457 81.3498 226.524 81.2887C226.59 81.2275 226.677 81.1943 226.766 81.1957L252.873 83.9806C252.928 83.9683 252.985 83.9698 253.039 83.985C253.094 84.0001 253.144 84.0284 253.186 84.0676C253.228 84.1068 253.26 84.1557 253.28 84.2103C253.3 84.2649 253.308 84.3237 253.301 84.3817C253.295 84.4398 253.276 84.4955 253.245 84.5443C253.214 84.5931 253.172 84.6336 253.123 84.6624C253.074 84.6912 253.019 84.7076 252.962 84.71C252.906 84.7125 252.85 84.7012 252.799 84.6768V84.7116Z" fill="#263238"/>
<path d="M223.876 86.0772L221.636 85.8395C221.403 85.8148 221.195 85.9902 221.172 86.2312L220.942 88.5513C220.918 88.7923 221.088 89.0077 221.32 89.0324L223.56 89.2701C223.793 89.2948 224.001 89.1195 224.025 88.8785L224.254 86.5583C224.278 86.3173 224.109 86.1019 223.876 86.0772Z" fill="white" stroke="#263238" stroke-linecap="round" stroke-linejoin="round"/>
<path d="M255.084 90.5668L226.141 87.4964C226.073 87.4641 226.016 87.4104 225.979 87.343C225.942 87.2755 225.927 87.1978 225.935 87.1207C225.943 87.0436 225.975 86.9712 226.025 86.9137C226.075 86.8562 226.142 86.8165 226.215 86.8002L255.138 89.8357C255.193 89.8235 255.25 89.825 255.305 89.8402C255.359 89.8553 255.41 89.8836 255.451 89.9228C255.493 89.9619 255.526 90.0108 255.546 90.0655C255.566 90.1201 255.573 90.1788 255.567 90.2369C255.561 90.295 255.541 90.3507 255.51 90.3995C255.479 90.4483 255.437 90.4888 255.388 90.5176C255.339 90.5464 255.284 90.5627 255.228 90.5652C255.172 90.5677 255.115 90.5563 255.064 90.532L255.084 90.5668Z" fill="#263238"/>
<path d="M252.093 91.8409L225.986 89.056C225.937 89.0553 225.888 89.0438 225.843 89.0225C225.798 89.0011 225.758 88.9703 225.725 88.932C225.692 88.8937 225.667 88.8487 225.652 88.7999C225.637 88.7511 225.632 88.6996 225.637 88.6486C225.642 88.5976 225.657 88.5484 225.682 88.5039C225.707 88.4594 225.74 88.4207 225.78 88.3902C225.819 88.3598 225.865 88.3383 225.913 88.327C225.961 88.3158 226.011 88.3151 226.06 88.325L252.16 91.1098C252.21 91.1096 252.259 91.1202 252.305 91.1409C252.35 91.1616 252.391 91.1919 252.425 91.23C252.458 91.268 252.484 91.313 252.5 91.3618C252.516 91.4107 252.521 91.4625 252.517 91.5138C252.512 91.5651 252.497 91.6149 252.472 91.6598C252.448 91.7047 252.415 91.7439 252.375 91.7747C252.335 91.8055 252.289 91.8273 252.241 91.8387C252.192 91.8501 252.142 91.8508 252.093 91.8409Z" fill="#263238"/>
<path d="M242.206 142.967L243.857 143.142L244.825 133.356L243.174 133.181L242.206 142.967Z" fill="#757575" stroke="#263238" stroke-linecap="round" stroke-linejoin="round"/>
<path d="M242.356 141.487L244.007 141.662L244.463 137.057L242.811 136.881L242.356 141.487Z" fill="#9E54E8" stroke="#263238" stroke-miterlimit="10"/>
<path d="M246.176 140.888L247.828 141.063L248.796 131.277L247.144 131.101L246.176 140.888Z" fill="#757575" stroke="#263238" stroke-linecap="round" stroke-linejoin="round"/>
<path d="M246.881 133.687L246.425 138.293L248.077 138.468L248.532 133.862L246.881 133.687Z" fill="#9E54E8" stroke="#263238" stroke-miterlimit="10"/>
<path d="M249.706 143.151L251.357 143.326L252.325 133.54L250.674 133.365L249.706 143.151Z" fill="#757575" stroke="#263238" stroke-linecap="round" stroke-linejoin="round"/>
<path d="M250.069 139.478L251.721 139.654L252.177 135.048L250.525 134.873L250.069 139.478Z" fill="#9E54E8" stroke="#263238" stroke-miterlimit="10"/>
<path d="M238.679 140.64L240.33 140.816L241.298 131.029L239.647 130.854L238.679 140.64Z" fill="#757575" stroke="#263238" stroke-linecap="round" stroke-linejoin="round"/>
<path d="M238.829 139.153L240.48 139.328L240.936 134.723L239.284 134.547L238.829 139.153Z" fill="#9E54E8" stroke="#263238" stroke-miterlimit="10"/>
<path d="M234.676 143.13L236.327 143.305L237.295 133.519L235.644 133.344L234.676 143.13Z" fill="#757575" stroke="#263238" stroke-linecap="round" stroke-linejoin="round"/>
<path d="M234.781 142.032L236.433 142.207L236.888 137.602L235.237 137.426L234.781 142.032Z" fill="#9E54E8" stroke="#263238" stroke-miterlimit="10"/>
<path d="M231.204 140.209L232.856 140.384L233.824 130.598L232.172 130.422L231.204 140.209Z" fill="#757575" stroke="#263238" stroke-linecap="round" stroke-linejoin="round"/>
<path d="M231.241 139.853L232.892 140.029L233.348 135.423L231.696 135.248L231.241 139.853Z" fill="#9E54E8" stroke="#263238" stroke-miterlimit="10"/>
<path d="M226.976 144.934L228.627 145.109L229.595 135.322L227.944 135.147L226.976 144.934Z" fill="#757575" stroke="#263238" stroke-linecap="round" stroke-linejoin="round"/>
<path d="M227.005 144.571L228.656 144.746L229.112 140.14L227.46 139.965L227.005 144.571Z" fill="#9E54E8" stroke="#263238" stroke-miterlimit="10"/>
<path d="M223.867 138.369L225.519 138.545L226.487 128.758L224.835 128.583L223.867 138.369Z" fill="#757575" stroke="#263238" stroke-linecap="round" stroke-linejoin="round"/>
<path d="M224.017 136.897L225.669 137.072L226.125 132.467L224.473 132.291L224.017 136.897Z" fill="#9E54E8" stroke="#263238" stroke-miterlimit="10"/>
<path d="M220.197 137.414L221.849 137.59L222.817 127.803L221.165 127.628L220.197 137.414Z" fill="#757575" stroke="#263238" stroke-linecap="round" stroke-linejoin="round"/>
<path d="M220.568 133.714L222.22 133.889L222.676 129.284L221.024 129.108L220.568 133.714Z" fill="#9E54E8" stroke="#263238" stroke-miterlimit="10"/>
<path d="M215.88 143.158L217.532 143.333L218.5 133.547L216.848 133.371L215.88 143.158Z" fill="#757575" stroke="#263238" stroke-linecap="round" stroke-linejoin="round"/>
<path d="M216.282 139.097L217.934 139.272L218.389 134.666L216.738 134.491L216.282 139.097Z" fill="#9E54E8" stroke="#263238" stroke-miterlimit="10"/>
<path d="M212.585 138.454L214.236 138.63L215.204 128.843L213.553 128.668L212.585 138.454Z" fill="#757575" stroke="#263238" stroke-linecap="round" stroke-linejoin="round"/>
<path d="M212.766 136.614L214.418 136.789L214.873 132.183L213.222 132.008L212.766 136.614Z" fill="#9E54E8" stroke="#263238" stroke-miterlimit="10"/>
<path d="M208.602 140.626L210.254 140.801L211.222 131.014L209.57 130.839L208.602 140.626Z" fill="#757575" stroke="#263238" stroke-linecap="round" stroke-linejoin="round"/>
<path d="M208.759 139.139L210.411 139.315L210.867 134.709L209.215 134.534L208.759 139.139Z" fill="#9E54E8" stroke="#263238" stroke-miterlimit="10"/>
<path d="M204.45 144.622L206.102 144.797L207.07 135.011L205.418 134.835L204.45 144.622Z" fill="#757575" stroke="#263238" stroke-linecap="round" stroke-linejoin="round"/>
<path d="M204.463 144.614L206.114 144.789L206.57 140.183L204.918 140.008L204.463 144.614Z" fill="#9E54E8" stroke="#263238" stroke-miterlimit="10"/>
<path d="M201.352 138.023L203.004 138.199L203.972 128.412L202.32 128.237L201.352 138.023Z" fill="#757575" stroke="#263238" stroke-linecap="round" stroke-linejoin="round"/>
<path d="M201.458 136.911L203.11 137.086L203.566 132.48L201.914 132.305L201.458 136.911Z" fill="#9E54E8" stroke="#263238" stroke-miterlimit="10"/>
<path d="M198.05 133.334L199.702 133.509L200.67 123.723L199.018 123.547L198.05 133.334Z" fill="#757575" stroke="#263238" stroke-linecap="round" stroke-linejoin="round"/>
<path d="M198.169 132.222L199.82 132.397L200.276 127.792L198.624 127.616L198.169 132.222Z" fill="#9E54E8" stroke="#263238" stroke-miterlimit="10"/>
<path d="M193.82 138.115L195.472 138.29L196.44 128.504L194.788 128.328L193.82 138.115Z" fill="#757575" stroke="#263238" stroke-linecap="round" stroke-linejoin="round"/>
<path d="M194.184 134.435L195.836 134.61L196.292 130.005L194.64 129.829L194.184 134.435Z" fill="#9E54E8" stroke="#263238" stroke-miterlimit="10"/>
<path d="M189.558 143.25L191.21 143.425L192.178 133.639L190.526 133.463L189.558 143.25Z" fill="#757575" stroke="#263238" stroke-linecap="round" stroke-linejoin="round"/>
<path d="M189.991 138.821L191.643 138.996L192.099 134.39L190.447 134.215L189.991 138.821Z" fill="#9E54E8" stroke="#263238" stroke-miterlimit="10"/>
<path d="M186.384 137.323L188.036 137.498L189.004 127.712L187.352 127.536L186.384 137.323Z" fill="#757575" stroke="#263238" stroke-linecap="round" stroke-linejoin="round"/>
<path d="M186.528 135.857L188.179 136.032L188.635 131.427L186.983 131.251L186.528 135.857Z" fill="#9E54E8" stroke="#263238" stroke-miterlimit="10"/>
<path d="M182.826 135.307L184.477 135.482L185.445 125.696L183.794 125.521L182.826 135.307Z" fill="#757575" stroke="#263238" stroke-linecap="round" stroke-linejoin="round"/>
<path d="M183.228 131.246L184.879 131.421L185.335 126.815L183.683 126.64L183.228 131.246Z" fill="#9E54E8" stroke="#263238" stroke-miterlimit="10"/>
<path d="M178.798 137.966L180.45 138.142L181.418 128.355L179.766 128.18L178.798 137.966Z" fill="#757575" stroke="#263238" stroke-linecap="round" stroke-linejoin="round"/>
<path d="M178.804 137.958L180.455 138.133L180.911 133.527L179.259 133.352L178.804 137.958Z" fill="#9E54E8" stroke="#263238" stroke-miterlimit="10"/>
<path d="M175.383 134.508L177.034 134.683L178.002 124.896L176.351 124.721L175.383 134.508Z" fill="#757575" stroke="#263238" stroke-linecap="round" stroke-linejoin="round"/>
<path d="M175.458 133.778L177.109 133.953L177.565 129.347L175.913 129.172L175.458 133.778Z" fill="#9E54E8" stroke="#263238" stroke-miterlimit="10"/>
<path d="M171.535 135.434L173.187 135.609L174.155 125.823L172.503 125.648L171.535 135.434Z" fill="#757575" stroke="#263238" stroke-linecap="round" stroke-linejoin="round"/>
<path d="M171.572 135.065L173.224 135.24L173.679 130.634L172.028 130.459L171.572 135.065Z" fill="#9E54E8" stroke="#263238" stroke-miterlimit="10"/>
<path d="M167.94 133.779L169.591 133.954L170.559 124.168L168.908 123.993L167.94 133.779Z" fill="#757575" stroke="#263238" stroke-linecap="round" stroke-linejoin="round"/>
<path d="M168.417 128.996L170.068 129.172L170.524 124.566L168.872 124.391L168.417 128.996Z" fill="#9E54E8" stroke="#263238" stroke-miterlimit="10"/>
<path d="M252.349 154.974L176.911 146.961C176.701 146.939 176.491 147.005 176.327 147.143C176.164 147.281 176.059 147.481 176.037 147.699C176.026 147.806 176.036 147.914 176.065 148.017C176.095 148.12 176.144 148.217 176.209 148.3C176.275 148.384 176.356 148.453 176.448 148.504C176.539 148.555 176.64 148.586 176.743 148.597L252.187 156.589C252.397 156.611 252.607 156.545 252.771 156.407C252.935 156.269 253.039 156.069 253.061 155.851C253.076 155.638 253.01 155.427 252.877 155.263C252.744 155.099 252.554 154.995 252.349 154.974Z" fill="#263238"/>
<path d="M251.777 160.857L164.046 151.542C163.836 151.52 163.626 151.586 163.462 151.724C163.299 151.862 163.194 152.062 163.172 152.28C163.161 152.387 163.171 152.496 163.201 152.6C163.231 152.703 163.28 152.8 163.347 152.884C163.413 152.967 163.495 153.036 163.587 153.087C163.68 153.137 163.781 153.168 163.885 153.178L251.609 162.493C251.819 162.513 252.027 162.446 252.189 162.308C252.351 162.17 252.454 161.971 252.477 161.755C252.488 161.649 252.478 161.541 252.449 161.438C252.42 161.335 252.372 161.239 252.307 161.156C252.242 161.072 252.162 161.003 252.071 160.952C251.98 160.901 251.88 160.868 251.777 160.857Z" fill="#263238"/>
<path d="M214.338 162.855L163.461 157.453C163.251 157.431 163.041 157.497 162.877 157.635C162.714 157.773 162.609 157.973 162.587 158.191C162.577 158.298 162.587 158.407 162.618 158.51C162.648 158.613 162.698 158.709 162.764 158.793C162.83 158.876 162.911 158.945 163.003 158.996C163.095 159.047 163.196 159.078 163.3 159.089L214.176 164.491C214.28 164.502 214.385 164.492 214.485 164.461C214.585 164.43 214.678 164.379 214.758 164.311C214.839 164.243 214.906 164.159 214.956 164.064C215.005 163.969 215.036 163.864 215.047 163.757C215.057 163.649 215.047 163.541 215.017 163.437C214.988 163.334 214.938 163.238 214.872 163.154C214.807 163.07 214.725 163.001 214.634 162.95C214.542 162.898 214.441 162.866 214.338 162.855Z" fill="#263238"/>
<path opacity="0.2" d="M260.67 110.284C258.069 110.068 257.168 114.364 257.168 114.364C257.168 114.364 253.054 108.794 253.706 95.6493C253.706 95.6493 251.69 89.8289 246.312 93.3448C240.935 96.8607 235.349 109.246 236.68 122.753L226.235 86.7656C222.619 87.5592 215.272 92.5929 217.208 116.898L205.781 104.366C205.781 104.366 202.689 103.336 200.941 106.169C199.193 109.003 200.027 129.298 201.472 136.886C202.917 144.475 199.234 159.722 199.234 159.722C199.234 159.722 195.295 142.456 188.17 138.084L161.034 80.1445L152.007 171.28L162.177 172.359L178.511 164.122C178.417 167.931 178.329 171.433 178.06 174.044L259.689 182.704L265.53 123.651C263.547 116.292 261.651 110.36 260.67 110.284Z" fill="black" fill-opacity="0.7"/>
<path d="M275.027 27.6564L265.53 123.651L259.689 182.704L178.06 174.043L162.177 172.359L152.007 171.279L161.021 80.1444L167.346 16.2315L275.027 27.6564Z" stroke="#263238" stroke-linecap="round" stroke-linejoin="round"/>
<path d="M273.683 274.786L225.959 283.197C225.959 283.197 217.651 237.49 212.697 230.284C207.743 223.078 208.664 220.119 206.244 215.266C204.793 212.335 197.506 206.87 191.8 201.474C191.302 201.008 190.818 200.541 190.354 200.082C190.153 199.894 189.965 199.692 189.776 199.504C189.017 198.724 188.311 197.965 187.686 197.22C187.457 196.956 187.233 196.691 187.014 196.427C185.954 195.205 185.165 193.758 184.701 192.187C184.681 192.117 184.667 192.044 184.661 191.971C184.642 191.886 184.628 191.8 184.621 191.713C184.493 190.634 184.359 189.402 184.224 188.065C184.224 187.801 184.17 187.522 184.137 187.244L184.096 186.91C183.982 185.796 183.855 184.612 183.707 183.394C183.559 182.175 183.397 180.797 183.209 179.467C183.149 179.007 183.088 178.548 183.014 178.074C182.94 177.559 182.86 177.044 182.779 176.522L182.544 175.178C182.544 175.102 182.51 175.032 182.503 174.969L182.221 173.424C182.203 173.367 182.192 173.309 182.188 173.25C182.093 172.797 182.006 172.352 181.905 171.899C181.697 170.89 181.462 169.901 181.233 168.94C180.77 167.132 180.175 165.363 179.452 163.649C176.01 155.691 180.487 158.566 177.792 138.091C177.792 138.091 179.774 133.342 185.427 137.137C185.864 137.432 186.286 137.75 186.691 138.091C187.837 139.05 188.848 140.17 189.696 141.419C190.845 143.118 191.721 144.999 192.29 146.988C193.214 150.215 193.475 153.607 193.056 156.944C193.056 156.944 197.305 172.024 199.543 175.457C201.781 178.889 211.037 159.172 210.439 156.875C210.229 155.844 210.069 154.803 209.961 153.756C209.921 153.414 209.881 153.059 209.834 152.669C209.787 152.28 209.746 151.89 209.706 151.479C209.706 151.284 209.659 151.075 209.632 150.873C209.632 150.79 209.632 150.706 209.632 150.63C209.551 149.843 209.457 149.007 209.37 148.144C209.37 147.9 209.323 147.671 209.296 147.448C209.256 147.037 209.215 146.612 209.175 146.195C209.171 146.125 209.171 146.055 209.175 145.986C209.175 145.749 209.121 145.505 209.101 145.29C209.047 144.802 209 144.308 208.953 143.814C208.906 143.319 208.873 142.964 208.832 142.54C208.752 141.739 208.678 140.938 208.604 140.165C208.55 139.588 208.496 139.017 208.449 138.46C208.449 138.334 208.449 138.209 208.415 138.091C208.133 135.027 207.911 132.521 207.831 131.435C207.831 131.435 201.109 121.117 200.437 116.257C199.765 111.398 199.805 106.28 202.621 104.199C209.289 99.2835 207.327 107.206 210.324 110.465C213.322 113.723 217.886 119.119 220.481 120.797C222.874 122.37 225.011 128.455 225.314 129.374C224.971 128.037 221.55 114.893 221.476 112.247C221.388 109.462 219.332 94.7302 222.82 89.4459C226.309 84.1616 230.96 88.2623 231.39 89.3066C231.82 90.351 231.948 104.623 233.178 108.592C234.408 112.56 239.557 129.109 239.557 129.109C239.557 129.109 239.772 113.013 240.901 105.807C242.031 98.6012 245.082 92.9688 248.04 92.6485C250.997 92.3282 253.733 95.7049 253.733 95.7049C253.733 95.7049 252.563 107.192 252.9 109.845C253.236 112.498 252.416 122.078 253.82 127.251C253.82 127.251 253.659 113.528 255.716 111.774C257.773 110.019 259.541 109.177 260.697 110.381C261.853 111.586 262.102 119.69 263.278 124.577C264.454 129.465 264.306 136.106 265.079 143.73C265.852 151.354 268.897 161.936 268.292 167.986C267.687 174.036 265.825 189.04 264.326 197.847C262.828 206.654 259.003 218.734 259.003 218.734C259.003 218.734 260.744 225.174 260.408 230.917C260.072 236.661 273.683 274.786 273.683 274.786Z" fill="white"/>
<path opacity="0.4" d="M233.118 108.55C234.032 111.488 237.09 121.319 238.609 126.227C238.609 126.227 231.941 131.303 232.103 136.023C232.264 140.743 230.886 150.275 227.888 149.996C224.89 149.718 225.2 129.91 224.185 126.575C224.796 128.009 225.186 129.172 225.267 129.402C225.045 128.546 221.483 114.907 221.409 112.205C221.409 111.572 221.267 110.305 221.126 108.668C221.126 108.668 227.761 102.089 232.627 106.113C232.737 106.936 232.901 107.75 233.118 108.55Z" fill="#9E54E8"/>
<path opacity="0.4" d="M252.94 114.204C249.834 117.253 245.149 122.642 244.558 127.842C244.558 127.842 246.285 142.366 245.546 148.729L239.496 129.089C239.496 129.089 239.712 112.992 240.841 105.786C240.841 105.591 240.908 105.389 240.942 105.194C244.718 103.204 248.885 102.139 253.121 102.082C252.861 104.642 252.774 107.217 252.859 109.789C252.961 111.258 252.988 112.732 252.94 114.204Z" fill="#9E54E8"/>
<path opacity="0.4" d="M255.689 111.697C255.615 111.746 255.434 111.899 255.172 112.129C255.327 111.816 255.503 111.513 255.696 111.224L255.689 111.697Z" fill="#9E54E8"/>
<path opacity="0.4" d="M257.269 151.848C257.269 151.848 253.276 136.336 253.236 123.846C253.202 119.223 253.72 115.011 255.165 112.164C255.321 111.851 255.496 111.548 255.689 111.258V111.704C256.412 111.058 257.212 110.511 258.069 110.075C256.946 111.885 255.656 115.429 257.148 121.214C259.494 130.203 257.45 141.224 257.269 151.848Z" fill="#9E54E8"/>
<path opacity="0.4" d="M202.198 181.409C202.198 181.409 203.267 196.19 191.8 201.481C191.302 201.015 190.818 200.548 190.355 200.089C190.153 199.901 189.965 199.699 189.776 199.511C189.017 198.731 188.311 197.972 187.686 197.227C187.451 196.956 187.242 196.691 187.014 196.434C185.954 195.212 185.165 193.765 184.702 192.194C184.681 192.123 184.668 192.051 184.661 191.978C184.642 191.893 184.628 191.807 184.621 191.72C184.493 190.641 184.359 189.409 184.224 188.072C184.224 187.808 184.171 187.529 184.137 187.251L184.097 186.916C183.982 185.802 183.855 184.619 183.707 183.401C183.559 182.182 183.398 180.804 183.209 179.474C183.142 179.014 183.082 178.548 183.014 178.081C182.941 177.566 182.86 177.051 182.779 176.529L182.544 175.178C182.544 175.102 182.51 175.032 182.504 174.969L182.221 173.424C182.203 173.367 182.192 173.309 182.188 173.25C182.094 172.797 182.006 172.352 181.905 171.899C181.69 170.896 181.455 169.908 181.233 168.94C185.77 164.422 196.243 167.255 191.175 156.777C191.175 156.777 193.729 147.81 186.691 138.091C191.504 142.108 193.971 149.174 193.057 156.889C193.057 156.889 197.305 171.969 199.543 175.401C201.781 178.833 211.037 159.116 210.439 156.819C210.229 155.788 210.07 154.747 209.962 153.7C209.921 153.359 209.881 153.004 209.834 152.614C209.787 152.224 209.747 151.834 209.706 151.423C209.706 151.228 209.659 151.019 209.632 150.817C209.632 150.734 209.632 150.65 209.632 150.574C209.552 149.78 209.464 148.952 209.37 148.088C209.37 147.845 209.323 147.615 209.296 147.392C209.256 146.981 209.216 146.557 209.175 146.139C209.171 146.069 209.171 146 209.175 145.93C209.175 145.693 209.121 145.45 209.101 145.234C209.047 144.746 209 144.252 208.953 143.758C208.906 143.264 208.873 142.908 208.832 142.484C208.752 141.683 208.678 140.882 208.604 140.11C208.55 139.532 208.503 138.954 208.449 138.404C208.449 138.279 208.449 138.153 208.416 138.035C208.597 138.947 212.005 155.754 213.954 159.666C215.91 163.677 207.414 184.89 202.198 181.409Z" fill="#9E54E8"/>
<path opacity="0.4" d="M264.3 197.75C262.801 206.564 258.976 218.636 258.976 218.636C258.976 218.636 260.717 225.076 260.381 230.82C260.287 232.366 261.214 236.271 262.599 241.145C262.196 240.073 257.894 228.571 257.981 224.561C258.069 220.349 256.913 219.186 254.62 214.013C252.328 208.84 248.9 209.411 248.9 209.411C248.9 209.411 247.556 222.312 244.437 213.832C241.318 205.352 240.707 195.487 248.591 161.233C248.591 161.233 249.781 165.529 248.786 178.29C247.791 191.052 250.735 194.916 250.735 194.916C255.16 186.928 258.677 178.435 261.214 169.609C261.214 169.609 260.193 184.501 259.285 191.282C258.378 198.063 262.518 183.421 265.409 174.378C268.097 165.891 268.225 162.66 267.19 156.617C267.956 160.871 268.534 164.972 268.239 167.903C267.661 173.925 265.799 188.942 264.3 197.75Z" fill="#9E54E8"/>
<path opacity="0.4" d="M210.372 226.462C212.697 230.291 218.391 235.352 221.798 249.353C225.206 263.354 223.055 278.678 223.055 278.678L210.372 226.462Z" fill="#9E54E8"/>
<path opacity="0.2" d="M192.297 146.961C192.297 146.961 180.393 153.226 179.452 163.67C176.01 155.712 180.487 158.587 177.792 138.112C177.792 138.112 179.774 133.363 185.427 137.158C185.864 137.453 186.286 137.771 186.691 138.112C187.837 139.071 188.848 140.191 189.696 141.44L192.297 146.961Z" fill="black" fill-opacity="0.7"/>
<path d="M225.959 283.197C225.959 283.197 217.651 237.49 212.697 230.284C207.743 223.078 208.664 220.119 206.245 215.267C203.825 210.414 185.454 198.606 184.641 191.706C183.828 184.807 182.893 171.607 179.452 163.642C176.01 155.677 180.487 158.56 177.785 138.084C177.785 138.084 179.801 133.336 185.427 137.13C191.054 140.924 194.051 148.513 193.063 156.916C193.063 156.916 197.311 171.983 199.556 175.422C201.801 178.861 211.037 159.137 210.439 156.833C209.841 154.528 208.066 134.93 207.79 131.351C207.79 131.351 201.069 121.026 200.397 116.167C199.724 111.307 199.765 106.19 202.581 104.115C209.249 99.1999 207.286 107.123 210.284 110.381C213.282 113.64 217.846 119.028 220.434 120.713C223.022 122.398 225.28 129.437 225.28 129.437C225.28 129.437 221.483 114.997 221.409 112.205C221.335 109.413 219.264 94.6884 222.753 89.4111C226.242 84.1338 230.9 88.2206 231.33 89.2649C231.76 90.3092 231.888 104.582 233.124 108.55L239.49 129.068C239.49 129.068 239.712 112.971 240.875 105.765C242.037 98.5594 245.055 92.927 248.013 92.6068C250.971 92.2865 253.706 95.6632 253.706 95.6632C253.706 95.6632 252.537 107.151 252.866 109.803C253.195 112.456 252.389 122.029 253.794 127.209C253.794 127.209 253.632 113.486 255.689 111.732C257.746 109.977 259.514 109.135 260.67 110.339C261.826 111.544 262.075 119.648 263.251 124.535C264.427 129.423 264.279 136.065 265.052 143.688C265.825 151.312 268.87 161.894 268.265 167.938C267.66 173.981 265.799 188.998 264.293 197.812C262.787 206.626 258.983 218.699 258.983 218.699C258.983 218.699 260.717 225.139 260.381 230.883C260.045 236.627 273.676 274.863 273.676 274.863" stroke="#263238" stroke-linecap="round" stroke-linejoin="round"/>
<path d="M239.49 129.054C240.881 132.437 244.316 146.724 245.539 148.701C246.163 149.797 247.071 150.69 248.161 151.277" stroke="#263238" stroke-linecap="round" stroke-linejoin="round"/>
<path d="M253.794 127.174C253.794 127.174 253.498 130.105 255.024 139.434C256.55 148.764 257.296 152.739 258.149 154.821" stroke="#263238" stroke-linecap="round" stroke-linejoin="round"/>
<path d="M225.28 129.437C227.142 135.125 228.198 144.19 229.26 146.919C230.322 149.648 231.276 150.212 231.276 150.212" stroke="#263238" stroke-linecap="round" stroke-linejoin="round"/>
<path d="M228.298 143.069C229.419 143.951 230.307 145.112 230.879 146.445" stroke="#263238" stroke-linecap="round" stroke-linejoin="round"/>
<path d="M199.556 175.429C199.556 175.429 200.571 182.969 205.135 182.391" stroke="#263238" stroke-linecap="round" stroke-linejoin="round"/>
<path d="M210.439 156.84C210.439 156.84 211.622 165.807 209.686 169.609" stroke="#263238" stroke-linecap="round" stroke-linejoin="round"/>
<path d="M246.897 156.923C246.897 156.923 249.962 158.866 247.912 164.582C245.862 170.298 242.293 193.287 242.293 193.287" stroke="#263238" stroke-linecap="round" stroke-linejoin="round"/>
<path d="M260.24 162.939C261.524 168.091 261.638 168.223 259.568 174.552C257.497 180.88 254.116 196.385 254.116 196.385" stroke="#263238" stroke-linecap="round" stroke-linejoin="round"/>
<path d="M258.983 218.622C258.983 218.622 256.966 214.445 258.633 210.964" stroke="#263238" stroke-linecap="round" stroke-linejoin="round"/>
<path d="M212.697 230.291C212.697 230.291 217.765 237.664 219.97 245.914" stroke="#263238" stroke-linecap="round" stroke-linejoin="round"/>
<path d="M249.989 101.052L251.36 99.6525L251.979 99.4645L251.938 100.161L250.681 101.825L249.989 101.052Z" fill="#757575" stroke="#263238" stroke-linecap="round" stroke-linejoin="round"/>
<path d="M251.105 101.832L248.873 107.067L188.916 189.875L182.241 185.461L191.282 173.681L245.136 103.711L249.888 100.585C250.179 100.663 250.445 100.82 250.659 101.039C250.873 101.257 251.027 101.531 251.105 101.832Z" fill="#9E54E8"/>
<path opacity="0.3" d="M251.105 101.832L248.873 107.067L188.916 189.875L182.241 185.461L191.282 173.681C195.449 173.236 196.149 175.77 196.149 175.77L247.805 105.939C247.294 104.06 245.116 103.698 245.116 103.698L249.868 100.572C250.165 100.647 250.436 100.804 250.653 101.026C250.871 101.248 251.027 101.526 251.105 101.832Z" fill="black" fill-opacity="0.7"/>
<path d="M251.105 101.832L248.873 107.067L188.916 189.875L182.241 185.461L191.282 173.681L245.136 103.711L249.888 100.585C250.179 100.663 250.445 100.82 250.659 101.039C250.873 101.257 251.027 101.531 251.105 101.832Z" stroke="#263238" stroke-linecap="round" stroke-linejoin="round"/>
<path d="M208.469 165.355C208.469 165.355 201.748 179.112 195.335 188.845L190.738 190.077C190.738 190.077 180.185 200.938 173.745 206.362C172.576 205.61 171.517 204.688 170.599 203.626C170.599 203.626 179.741 185.441 189.857 173.932C191.042 174.368 192.159 174.982 193.171 175.756C194.483 176.72 195.652 177.879 196.639 179.195L207.911 164.505L208.469 165.355Z" fill="#9E54E8"/>
<path opacity="0.3" d="M208.469 165.355C208.469 165.355 201.748 179.112 195.335 188.845L190.737 190.077C190.737 190.077 180.184 200.938 173.745 206.362L173.92 203.41C180.904 192.361 189.776 180.309 193.171 175.756C194.483 176.72 195.652 177.879 196.639 179.195L190.374 187.856L193.964 187.16L207.911 164.477L208.469 165.355Z" fill="black" fill-opacity="0.7"/>
<path d="M208.469 165.355C208.469 165.355 201.748 179.112 195.335 188.845L190.738 190.077C190.738 190.077 180.185 200.938 173.745 206.362C172.576 205.61 171.517 204.688 170.599 203.626C170.599 203.626 179.741 185.441 189.857 173.932C191.042 174.368 192.159 174.982 193.171 175.756C194.483 176.72 195.652 177.879 196.639 179.195L207.911 164.505L208.469 165.355Z" stroke="#263238" stroke-linecap="round" stroke-linejoin="round"/>
<path d="M231.263 150.198L212.536 168.996L209.545 172.003C211.595 166.545 210.6 158.079 210.473 157.083C210.473 157.028 210.473 156.993 210.473 156.993C210.473 156.993 210.473 156.882 210.473 156.847C210.262 155.816 210.103 154.775 209.995 153.728C209.955 153.387 209.915 153.031 209.868 152.642C209.821 152.252 209.78 151.862 209.74 151.451C209.74 151.256 209.693 151.047 209.666 150.845C209.666 150.762 209.666 150.678 209.666 150.602C209.585 149.815 209.491 148.979 209.404 148.116C209.404 147.873 209.357 147.643 209.33 147.42C209.29 147.009 209.249 146.585 209.209 146.167C209.205 146.097 209.205 146.027 209.209 145.958C209.209 145.721 209.155 145.478 209.135 145.262C209.081 144.774 209.034 144.28 208.987 143.786C208.94 143.291 208.906 142.936 208.866 142.512C208.785 141.711 208.711 140.91 208.638 140.138C208.584 139.56 208.53 138.989 208.483 138.432C208.483 138.306 208.483 138.181 208.449 138.063C208.167 134.999 207.945 132.493 207.865 131.407C207.865 131.407 201.143 121.089 200.471 116.229C199.799 111.37 199.839 106.253 202.655 104.171C209.323 99.2556 207.36 107.179 210.358 110.437C213.356 113.695 217.92 119.091 220.515 120.769C223.109 122.447 225.28 129.437 225.28 129.437C227.142 135.118 228.198 144.183 229.26 146.912C230.322 149.641 231.263 150.198 231.263 150.198Z" fill="white"/>
<path d="M228.298 143.069C229.419 143.951 230.307 145.112 230.879 146.445" stroke="#263238" stroke-linecap="round" stroke-linejoin="round"/>
<path opacity="0.4" d="M210.257 110.409C213.228 113.695 217.792 119.028 220.387 120.727C220.024 120.539 215.245 118.13 212.576 120.811C209.8 123.595 207.79 131.358 207.79 131.358C207.79 131.358 201.069 121.04 200.397 116.181C199.724 111.321 199.765 106.204 202.581 104.122C209.222 99.2069 207.273 107.158 210.257 110.409Z" fill="#9E54E8"/>
<path opacity="0.4" d="M212.536 169.01L209.545 172.017C211.595 166.559 210.6 158.093 210.473 157.097C210.481 157.019 210.481 156.939 210.473 156.861C210.262 155.83 210.103 154.789 209.995 153.742C209.955 153.401 209.915 153.045 209.868 152.656C209.821 152.266 209.78 151.876 209.74 151.465C209.74 151.27 209.693 151.061 209.666 150.859C209.666 150.776 209.666 150.692 209.666 150.616C209.585 149.822 209.498 148.993 209.404 148.13C209.404 147.886 209.357 147.657 209.33 147.434C209.29 147.023 209.249 146.598 209.209 146.181C209.205 146.111 209.205 146.041 209.209 145.972C209.209 145.735 209.155 145.491 209.135 145.276C209.081 144.788 209.034 144.294 208.987 143.8C208.94 143.305 208.906 142.95 208.866 142.526C208.785 141.725 208.711 140.924 208.637 140.152C208.584 139.574 208.537 138.996 208.483 138.446C208.483 138.32 208.483 138.195 208.449 138.077C208.631 138.989 212.039 155.796 213.988 159.708C214.647 161.129 213.961 164.944 212.536 169.01Z" fill="#9E54E8"/>
<path d="M231.269 150.198C231.269 150.198 230.322 149.634 229.253 146.905C228.184 144.176 227.135 135.111 225.274 129.423C225.274 129.423 222.995 122.461 220.4 120.748C217.806 119.035 213.235 113.702 210.251 110.416C207.266 107.13 209.215 99.2069 202.548 104.15C199.731 106.239 199.671 111.349 200.363 116.202C201.055 121.054 207.757 131.386 207.757 131.386C208.032 134.965 209.807 154.57 210.405 156.868" stroke="#263238" stroke-linecap="round" stroke-linejoin="round"/>
<path d="M210.439 156.84C210.439 156.84 211.622 165.807 209.686 169.609" stroke="#263238" stroke-linecap="round" stroke-linejoin="round"/>
<path opacity="0.2" d="M95.4779 167.805C95.4779 167.805 99.7327 188.274 90.5173 203.159C81.3018 218.044 74.2038 222.02 71.0244 226.461C67.8451 230.903 55.3495 255.737 55.3495 255.737L40.7634 210.992L55.3495 155.635L95.4779 167.805Z" fill="black" fill-opacity="0.7"/>
<path d="M181.448 152.161L91.0013 191.588L81.6783 195.654L64.1079 152.412L23.3073 51.9961L123.077 8.50337L181.448 152.161Z" fill="white"/>
<path d="M97.2992 27.1968L54.2334 45.9947C53.8448 46.1637 53.5368 46.4856 53.3774 46.8897C53.2179 47.2938 53.22 47.747 53.3831 48.1495C53.5462 48.552 53.857 48.871 54.2472 49.0361C54.6373 49.2013 55.0748 49.1992 55.4635 49.0302L98.5225 30.2254C98.7181 30.1443 98.8962 30.0237 99.0463 29.8706C99.1965 29.7175 99.3157 29.535 99.3969 29.3337C99.4782 29.1323 99.5199 28.9162 99.5197 28.698C99.5195 28.4798 99.4773 28.2638 99.3956 28.0626C99.3139 27.8615 99.1943 27.6792 99.0439 27.5265C98.8934 27.3737 98.7151 27.2535 98.5193 27.1729C98.3235 27.0923 98.1142 27.0529 97.9036 27.057C97.6929 27.0611 97.4852 27.1086 97.2925 27.1968H97.2992Z" fill="#263238"/>
<path d="M89.065 38.1205L67.5556 47.5055C67.3613 47.5904 67.2076 47.7518 67.1281 47.9542C67.0487 48.1566 67.0502 48.3834 67.1322 48.5846C67.2142 48.7859 67.37 48.9452 67.5654 49.0274C67.7608 49.1097 67.9797 49.1082 68.174 49.0232L89.6834 39.6313C89.7844 39.593 89.8769 39.5339 89.9551 39.4575C90.0334 39.3811 90.0959 39.2891 90.1387 39.1869C90.1816 39.0847 90.2039 38.9746 90.2044 38.8632C90.2048 38.7518 90.1834 38.6415 90.1415 38.5389C90.0995 38.4364 90.0378 38.3437 89.9602 38.2666C89.8826 38.1895 89.7906 38.1296 89.6899 38.0905C89.5892 38.0513 89.4819 38.0338 89.3745 38.0389C89.2671 38.0441 89.1618 38.0718 89.065 38.1205Z" fill="#263238"/>
<path d="M124.495 95.3218C124.495 95.3218 125.403 102.709 122.748 103.864C120.321 104.923 117.128 100.961 114.339 102.173C111.549 103.384 113.747 113.869 111.059 115.039C108.37 116.208 105.13 111.906 102.804 112.95C100.479 113.994 101.89 119.355 99.4974 120.4C97.5212 121.256 94.6981 116.974 92.4396 116.034C92.2317 115.929 92.0053 115.869 91.7743 115.857C91.5433 115.845 91.3123 115.882 91.0953 115.965C88.7292 116.995 89.9055 128.253 87.8621 129.137C87.2906 129.392 86.6678 129.5 86.0473 129.45C85.2871 129.302 84.5154 129.225 83.7417 129.221C83.4454 129.252 83.1554 129.329 82.8814 129.45C81.1405 130.209 81.3757 136.134 79.7827 136.83C78.1896 137.527 76.6168 136.663 74.9162 137.401C73.2156 138.139 73.2425 141.223 70.7017 142.33L71.7772 144.969L133.691 117.984" fill="#BFBFBF"/>
<path d="M124.495 95.3218C124.495 95.3218 125.403 102.709 122.748 103.864C120.321 104.923 117.128 100.961 114.339 102.173C111.549 103.384 113.747 113.869 111.059 115.039C108.37 116.208 105.13 111.906 102.804 112.95C100.479 113.994 101.89 119.355 99.4974 120.4C97.5212 121.256 94.6981 116.974 92.4396 116.034C92.2317 115.929 92.0053 115.869 91.7743 115.857C91.5433 115.845 91.3123 115.882 91.0953 115.965C88.7292 116.995 89.9055 128.253 87.8621 129.137C87.2906 129.392 86.6678 129.5 86.0473 129.45C85.2871 129.302 84.5154 129.225 83.7417 129.221C83.4454 129.252 83.1554 129.329 82.8814 129.45C81.1405 130.209 81.3757 136.134 79.7827 136.83C78.1896 137.527 76.6168 136.663 74.9162 137.401C73.2156 138.139 73.2425 141.223 70.7017 142.33L71.7772 144.969L133.691 117.984" stroke="#263238" stroke-miterlimit="10"/>
<path d="M59.2412 114.064L71.7771 144.913L136.601 116.661" stroke="#263238" stroke-linecap="round" stroke-linejoin="round"/>
<path d="M129.476 107.561C129.476 107.561 129.167 107.171 128.71 106.705C127.91 105.904 126.639 104.888 125.672 105.313C124.704 105.737 124.643 107.345 124.663 109.086C124.663 111.175 124.865 113.472 123.837 113.918C122.963 114.301 122.183 113.73 121.376 113.103C120.456 112.407 119.515 111.613 118.379 112.108C116.47 112.943 117.034 115.519 116.362 117.726C116.179 118.361 115.857 118.943 115.419 119.427C114.982 119.91 114.441 120.281 113.841 120.511C112.195 121.207 110.521 120.511 108.941 119.411C106.253 117.531 103.887 114.482 102.341 115.157C99.8738 116.236 102.589 123.143 99.941 124.298C98.4622 124.946 95.3971 120.121 92.4194 115.944C90.0668 112.651 87.768 109.782 86.3699 110.374C83.1771 111.766 88.4402 128.288 86.1212 129.297L86.0473 129.332C85.6741 129.492 85.2688 129.554 84.867 129.514C84.4651 129.474 84.0788 129.333 83.7417 129.102C82.9083 128.615 82.2227 127.912 81.3018 128.316C79.5878 129.067 80.5893 135.542 78.7072 136.364C76.8251 137.185 75.6892 135.995 73.5651 136.921C71.7704 137.708 70.7017 142.212 70.7017 142.212L71.7772 144.851L133.691 117.865" fill="#757575"/>
<path d="M129.476 107.561C129.476 107.561 129.167 107.171 128.71 106.705C127.91 105.904 126.639 104.888 125.672 105.313C124.704 105.737 124.643 107.345 124.663 109.086C124.663 111.175 124.865 113.472 123.837 113.918C122.963 114.301 122.183 113.73 121.376 113.103C120.456 112.407 119.515 111.613 118.379 112.108C116.47 112.943 117.034 115.519 116.362 117.726C116.179 118.361 115.857 118.943 115.419 119.427C114.982 119.91 114.441 120.281 113.841 120.511C112.195 121.207 110.521 120.511 108.941 119.411C106.253 117.531 103.887 114.482 102.341 115.157C99.8738 116.236 102.589 123.143 99.941 124.298C98.4622 124.946 95.3971 120.121 92.4194 115.944C90.0668 112.651 87.768 109.782 86.3699 110.374C83.1771 111.766 88.4402 128.288 86.1212 129.297L86.0473 129.332C85.6741 129.492 85.2688 129.554 84.867 129.514C84.4651 129.474 84.0788 129.333 83.7417 129.102C82.9083 128.615 82.2227 127.912 81.3018 128.316C79.5878 129.067 80.5893 135.542 78.7072 136.364C76.8251 137.185 75.6892 135.995 73.5651 136.921C71.7704 137.708 70.7017 142.212 70.7017 142.212L71.7772 144.851L133.691 117.865" stroke="#263238" stroke-linecap="round" stroke-linejoin="round"/>
<path d="M116.369 129.583L94.8593 138.968C94.665 139.053 94.5112 139.214 94.4318 139.416C94.3524 139.619 94.3538 139.846 94.4358 140.047C94.5178 140.248 94.6737 140.407 94.869 140.49C95.0644 140.572 95.2834 140.57 95.4777 140.485L116.987 131.1C117.181 131.016 117.335 130.854 117.415 130.652C117.494 130.449 117.493 130.223 117.411 130.021C117.329 129.82 117.173 129.661 116.977 129.578C116.782 129.496 116.563 129.498 116.369 129.583Z" fill="#263238"/>
<path d="M133.422 92.6352L131.346 93.5398C131.13 93.6337 131.029 93.8909 131.12 94.1142L131.993 96.264C132.084 96.4873 132.332 96.5921 132.548 96.4981L134.623 95.5936C134.839 95.4996 134.94 95.2425 134.849 95.0192L133.976 92.8694C133.885 92.6461 133.637 92.5413 133.422 92.6352Z" fill="#BFBFBF" stroke="#263238" stroke-miterlimit="10"/>
<path d="M144.68 88.9862L136.077 92.7389C135.988 92.7741 135.89 92.7728 135.802 92.7352C135.715 92.6976 135.645 92.6267 135.606 92.537C135.57 92.4473 135.57 92.3467 135.605 92.2568C135.64 92.1669 135.708 92.0949 135.794 92.0566L144.405 88.3039C144.491 88.2668 144.589 88.2664 144.675 88.3028C144.762 88.3393 144.832 88.4098 144.869 88.4989C144.887 88.5436 144.897 88.5918 144.898 88.6406C144.899 88.6895 144.89 88.7379 144.873 88.7833C144.855 88.8286 144.829 88.8699 144.796 88.9047C144.763 88.9396 144.724 88.9673 144.68 88.9862Z" fill="#263238"/>
<path d="M142.657 91.611L136.675 94.2148C136.588 94.252 136.491 94.2524 136.404 94.2159C136.317 94.1794 136.248 94.109 136.211 94.0199C136.192 93.9751 136.182 93.9269 136.181 93.8781C136.181 93.8293 136.189 93.7808 136.207 93.7355C136.224 93.6902 136.25 93.6489 136.283 93.614C136.316 93.5792 136.356 93.5515 136.399 93.5325L142.381 90.9287C142.468 90.8915 142.565 90.8911 142.652 90.9276C142.739 90.964 142.808 91.0345 142.845 91.1236C142.881 91.2142 142.882 91.3159 142.847 91.4069C142.812 91.498 142.744 91.5712 142.657 91.611Z" fill="#263238"/>
<path d="M136.116 99.263L134.041 100.168C133.825 100.261 133.724 100.519 133.815 100.742L134.688 102.892C134.779 103.115 135.027 103.22 135.242 103.126L137.318 102.221C137.533 102.127 137.635 101.87 137.544 101.647L136.671 99.4971C136.58 99.2739 136.332 99.169 136.116 99.263Z" fill="#757575" stroke="#263238" stroke-linecap="round" stroke-linejoin="round"/>
<path d="M147.369 95.6143L138.765 99.3599C138.721 99.3787 138.674 99.3882 138.626 99.388C138.578 99.3879 138.531 99.3779 138.487 99.3589C138.443 99.3398 138.403 99.3119 138.37 99.2769C138.336 99.2418 138.309 99.2002 138.291 99.1545C138.273 99.1088 138.264 99.0599 138.264 99.0104C138.264 98.961 138.274 98.9122 138.292 98.8666C138.311 98.821 138.338 98.7796 138.371 98.7448C138.405 98.71 138.445 98.6824 138.49 98.6637L147.093 94.9111C147.137 94.8923 147.185 94.8828 147.232 94.883C147.28 94.8831 147.327 94.893 147.371 94.9121C147.415 94.9312 147.455 94.9591 147.489 94.9941C147.523 95.0292 147.549 95.0708 147.567 95.1165C147.585 95.1622 147.595 95.2111 147.594 95.2605C147.594 95.3099 147.585 95.3588 147.566 95.4044C147.548 95.45 147.521 95.4914 147.487 95.5262C147.453 95.561 147.413 95.5886 147.369 95.6073V95.6143Z" fill="#263238"/>
<path d="M145.346 98.232L139.37 100.843C139.281 100.882 139.181 100.882 139.091 100.844C139.002 100.806 138.93 100.733 138.893 100.641C138.856 100.549 138.855 100.445 138.892 100.352C138.928 100.259 138.999 100.185 139.088 100.147L145.07 97.5427C145.114 97.524 145.162 97.5144 145.209 97.5146C145.257 97.5148 145.304 97.5247 145.348 97.5438C145.392 97.5628 145.432 97.5907 145.466 97.6258C145.499 97.6608 145.526 97.7024 145.544 97.7481C145.562 97.7938 145.571 97.8428 145.571 97.8922C145.571 97.9416 145.562 97.9905 145.543 98.0361C145.525 98.0817 145.498 98.123 145.464 98.1578C145.43 98.1926 145.39 98.2202 145.346 98.239V98.232Z" fill="#263238"/>
<path d="M158.688 122.934L88.783 153.4C88.5887 153.485 88.4349 153.647 88.3555 153.849C88.276 154.051 88.2775 154.278 88.3595 154.48C88.4415 154.681 88.5973 154.84 88.7927 154.922C88.9881 155.005 89.2071 155.003 89.4014 154.918L159.307 124.445C159.408 124.406 159.5 124.347 159.579 124.271C159.657 124.195 159.719 124.102 159.762 124C159.805 123.898 159.827 123.788 159.828 123.677C159.828 123.565 159.807 123.455 159.765 123.352C159.723 123.25 159.661 123.157 159.584 123.08C159.506 123.003 159.414 122.943 159.313 122.904C159.213 122.865 159.105 122.847 158.998 122.852C158.89 122.857 158.785 122.885 158.688 122.934Z" fill="#263238"/>
<path d="M160.906 128.385L79.6212 163.816C79.5202 163.854 79.4277 163.913 79.3495 163.989C79.2712 164.066 79.2087 164.158 79.1659 164.26C79.123 164.362 79.1007 164.472 79.1002 164.584C79.0998 164.695 79.1212 164.806 79.1631 164.908C79.2051 165.011 79.2668 165.103 79.3444 165.18C79.422 165.257 79.514 165.317 79.6147 165.357C79.7153 165.396 79.8227 165.413 79.9301 165.408C80.0375 165.403 80.1428 165.375 80.2396 165.327L161.518 129.896C161.622 129.86 161.717 129.803 161.799 129.727C161.88 129.652 161.945 129.559 161.99 129.456C162.036 129.353 162.06 129.242 162.061 129.128C162.063 129.015 162.042 128.903 162 128.799C161.957 128.694 161.895 128.6 161.816 128.522C161.737 128.444 161.643 128.383 161.54 128.345C161.438 128.306 161.328 128.289 161.219 128.296C161.11 128.303 161.004 128.334 160.906 128.385Z" fill="#263238"/>
<path d="M163.118 133.837L81.8395 169.267C81.7385 169.305 81.646 169.365 81.5678 169.441C81.4895 169.517 81.427 169.609 81.3842 169.712C81.3414 169.814 81.319 169.924 81.3185 170.035C81.3181 170.147 81.3395 170.257 81.3815 170.36C81.4234 170.462 81.4851 170.555 81.5627 170.632C81.6403 170.709 81.7323 170.769 81.833 170.808C81.9337 170.847 82.041 170.865 82.1484 170.86C82.2558 170.854 82.3611 170.827 82.4579 170.778L163.723 135.347C163.824 135.309 163.916 135.25 163.995 135.174C164.073 135.097 164.135 135.005 164.178 134.903C164.221 134.801 164.243 134.691 164.244 134.579C164.244 134.468 164.223 134.358 164.181 134.255C164.139 134.153 164.077 134.06 164 133.983C163.922 133.906 163.83 133.846 163.73 133.807C163.629 133.768 163.521 133.75 163.414 133.755C163.307 133.76 163.201 133.788 163.105 133.837H163.118Z" fill="#263238"/>
<path d="M165.336 139.288L84.0577 174.691C83.9539 174.726 83.8585 174.784 83.7772 174.859C83.696 174.935 83.6307 175.027 83.5855 175.13C83.5402 175.233 83.5161 175.345 83.5145 175.458C83.5128 175.571 83.5338 175.684 83.5761 175.788C83.6183 175.892 83.681 175.987 83.76 176.065C83.8391 176.143 83.9329 176.203 84.0355 176.242C84.1382 176.281 84.2475 176.297 84.3565 176.29C84.4656 176.283 84.5721 176.253 84.6693 176.201L165.948 140.771C166.052 140.735 166.147 140.678 166.228 140.602C166.31 140.526 166.375 140.434 166.42 140.331C166.465 140.228 166.489 140.117 166.491 140.003C166.493 139.89 166.472 139.778 166.429 139.673C166.387 139.569 166.325 139.475 166.245 139.397C166.166 139.319 166.073 139.258 165.97 139.219C165.867 139.181 165.758 139.164 165.649 139.171C165.54 139.178 165.433 139.208 165.336 139.26V139.288Z" fill="#263238"/>
<path d="M133.408 159.618L86.2688 180.17C86.1678 180.208 86.0753 180.267 85.9971 180.344C85.9188 180.42 85.8564 180.512 85.8135 180.614C85.7707 180.717 85.7483 180.827 85.7479 180.938C85.7474 181.049 85.7688 181.16 85.8108 181.262C85.8527 181.365 85.9144 181.458 85.992 181.535C86.0697 181.612 86.1616 181.672 86.2623 181.711C86.363 181.75 86.4703 181.767 86.5777 181.762C86.6852 181.757 86.7904 181.729 86.8872 181.681L134.026 161.135C134.123 161.093 134.21 161.032 134.283 160.955C134.357 160.878 134.415 160.787 134.454 160.687C134.493 160.586 134.513 160.479 134.512 160.371C134.512 160.263 134.49 160.156 134.45 160.056C134.409 159.957 134.35 159.866 134.276 159.79C134.201 159.714 134.113 159.654 134.017 159.613C133.92 159.573 133.816 159.552 133.712 159.553C133.607 159.554 133.504 159.576 133.408 159.618Z" fill="#263238"/>
<path d="M107.449 53.3398C107.449 53.3398 108.356 60.7336 105.701 61.8894C103.275 62.9476 100.075 58.9861 97.2924 60.1976C94.5096 61.409 96.7009 71.8871 94.0122 73.0637C91.3236 74.2403 88.077 69.9307 85.758 70.9402C83.439 71.9497 84.8439 77.3454 82.451 78.3828C80.4748 79.2461 77.6517 74.9644 75.3932 74.0245C75.1853 73.9195 74.9589 73.8592 74.7279 73.8472C74.4969 73.8353 74.2659 73.8719 74.0489 73.9548C71.6828 74.9852 72.8591 86.2361 70.8157 87.1273C70.2447 87.3838 69.621 87.4891 69.0009 87.4336C68.2399 87.2914 67.4686 87.2169 66.6954 87.2108C66.3989 87.2413 66.1087 87.3187 65.835 87.4406C64.0941 88.1995 64.3293 94.1243 62.7363 94.8135C61.1432 95.5028 59.5704 94.6534 57.8698 95.3914C56.1692 96.1294 56.1961 99.2136 53.6553 100.321L54.7308 102.959L116.671 75.9739" fill="#BFBFBF"/>
<path d="M107.449 53.3398C107.449 53.3398 108.356 60.7336 105.701 61.8894C103.275 62.9476 100.075 58.9861 97.2924 60.1976C94.5096 61.409 96.7009 71.8871 94.0122 73.0637C91.3236 74.2403 88.077 69.9307 85.758 70.9402C83.439 71.9497 84.8439 77.3454 82.451 78.3828C80.4748 79.2461 77.6517 74.9644 75.3932 74.0245C75.1853 73.9195 74.9589 73.8592 74.7279 73.8472C74.4969 73.8353 74.2659 73.8719 74.0489 73.9548C71.6828 74.9852 72.8591 86.2361 70.8157 87.1273C70.2447 87.3838 69.621 87.4891 69.0009 87.4336C68.2399 87.2914 67.4686 87.2169 66.6954 87.2108C66.3989 87.2413 66.1087 87.3187 65.835 87.4406C64.0941 88.1995 64.3293 94.1243 62.7363 94.8136C61.1432 95.5028 59.5704 94.6534 57.8698 95.3914C56.1692 96.1294 56.1961 99.2136 53.6553 100.321L54.7308 102.959L116.671 75.9739" stroke="#263238" stroke-miterlimit="10"/>
<path d="M111.448 63.1913C111.448 63.1913 112.013 66.7699 110.648 67.3686C109.512 67.863 108.813 67.1737 107.617 67.1319C107.032 67.1135 106.452 67.2301 105.916 67.4731C104.821 67.9465 104.572 69.4782 104.363 71.1213C104.121 73.1473 104 75.3473 102.569 75.9948C101.567 76.4334 100.485 76.1758 99.3692 75.772C97.588 75.1315 95.7194 74.115 93.9112 74.9017C93.0374 75.2846 92.4257 76.2942 91.9485 77.4847C90.826 80.3601 90.4765 84.5235 89.2598 85.0526C87.5324 85.8115 84.3665 82.7342 82.8339 83.4026C81.3014 84.0709 81.9265 86.828 80.683 87.371C79.4395 87.9141 78.727 86.3127 76.5357 87.2666C74.3444 88.2204 75.4132 91.5762 72.3212 92.9268C69.2292 94.2775 67.8715 91.792 64.887 93.0939C61.9026 94.3958 62.4403 96.7491 60.3297 97.6681C58.2191 98.5871 57.3319 96.9719 55.8262 97.6681C54.3206 98.3643 53.9576 100.794 53.9374 100.947L54.7642 102.98L116.671 75.9739" fill="#9E54E8"/>
<path d="M111.448 63.1913C111.448 63.1913 112.013 66.7699 110.648 67.3686C109.512 67.863 108.813 67.1737 107.617 67.1319C107.032 67.1135 106.452 67.2301 105.916 67.4731C104.821 67.9465 104.572 69.4782 104.363 71.1213C104.121 73.1473 104 75.3473 102.569 75.9948C101.567 76.4334 100.485 76.1758 99.3692 75.772C97.588 75.1315 95.7194 74.115 93.9112 74.9017C93.0374 75.2846 92.4257 76.2942 91.9485 77.4847C90.826 80.3601 90.4765 84.5235 89.2598 85.0526C87.5324 85.8115 84.3665 82.7342 82.8339 83.4026C81.3014 84.0709 81.9265 86.828 80.683 87.371C79.4395 87.9141 78.727 86.3127 76.5357 87.2666C74.3444 88.2204 75.4132 91.5762 72.3212 92.9268C69.2292 94.2775 67.8715 91.792 64.887 93.0939C61.9026 94.3958 62.4403 96.7491 60.3297 97.6681C58.2191 98.5871 57.3319 96.9719 55.8262 97.6681C54.3206 98.3643 53.9576 100.794 53.9374 100.947L54.7642 102.98L116.671 75.9739" stroke="#263238" stroke-miterlimit="10"/>
<path d="M42.195 72.1098L54.731 102.959L119.548 74.6998" stroke="#263238" stroke-linecap="round" stroke-linejoin="round"/>
<path d="M99.1275 87.1482L77.6181 96.5332C77.4238 96.6172 77.2697 96.7778 77.1896 96.9795C77.1096 97.1812 77.1102 97.4076 77.1913 97.6089C77.2724 97.8102 77.4274 97.9698 77.6222 98.0527C77.8169 98.1356 78.0355 98.135 78.2298 98.051L99.7392 88.666C99.8354 88.6239 99.9227 88.5626 99.996 88.4856C100.069 88.4086 100.127 88.3174 100.167 88.2172C100.206 88.117 100.226 88.0098 100.225 87.9016C100.225 87.7934 100.203 87.6865 100.163 87.5868C100.122 87.4872 100.063 87.3968 99.9885 87.3208C99.9142 87.2448 99.8262 87.1847 99.7294 87.144C99.6327 87.1033 99.5291 87.0827 99.4247 87.0834C99.3203 87.0841 99.217 87.1061 99.1208 87.1482H99.1275Z" fill="#263238"/>
<path d="M115.285 48.0019L113.209 48.9065C112.994 49.0004 112.893 49.2576 112.983 49.4809L113.857 51.6307C113.947 51.8539 114.196 51.9588 114.411 51.8648L116.487 50.9603C116.702 50.8663 116.803 50.6091 116.713 50.3859L115.839 48.2361C115.749 48.0128 115.5 47.908 115.285 48.0019Z" fill="#BFBFBF" stroke="#263238" stroke-miterlimit="10"/>
<path d="M126.546 44.3518L117.942 48.1044C117.853 48.1396 117.755 48.1383 117.668 48.1007C117.58 48.0632 117.51 47.9922 117.471 47.9025C117.436 47.812 117.436 47.7106 117.473 47.6205C117.509 47.5305 117.579 47.4591 117.666 47.4221L126.27 43.6695C126.357 43.6327 126.455 43.6333 126.542 43.6711C126.629 43.709 126.698 43.781 126.734 43.8714C126.752 43.9156 126.762 43.9633 126.763 44.0116C126.764 44.0599 126.755 44.1079 126.737 44.1527C126.72 44.1974 126.694 44.2381 126.661 44.2723C126.628 44.3065 126.589 44.3335 126.546 44.3518Z" fill="#263238"/>
<path d="M124.522 46.9764L118.54 49.5803C118.451 49.6182 118.351 49.6178 118.262 49.5793C118.173 49.5407 118.102 49.4672 118.066 49.3749C118.029 49.2826 118.03 49.179 118.067 49.087C118.104 48.9949 118.175 48.9219 118.264 48.8841L124.246 46.2733C124.333 46.2361 124.43 46.2357 124.517 46.2722C124.604 46.3086 124.673 46.3791 124.71 46.4682C124.731 46.5142 124.743 46.5641 124.745 46.615C124.747 46.6658 124.739 46.7166 124.721 46.7641C124.704 46.8116 124.677 46.8549 124.643 46.8914C124.608 46.9279 124.567 46.9569 124.522 46.9764Z" fill="#263238"/>
<path d="M117.986 54.6297L115.91 55.5343C115.695 55.6282 115.594 55.8854 115.684 56.1087L116.558 58.2584C116.648 58.4817 116.897 58.5866 117.112 58.4926L119.188 57.5881C119.403 57.4941 119.505 57.2369 119.414 57.0137L118.541 54.8639C118.45 54.6406 118.202 54.5358 117.986 54.6297Z" fill="#9E54E8" stroke="#263238" stroke-miterlimit="10"/>
<path d="M129.234 50.9796L120.63 54.7322C120.543 54.769 120.445 54.7684 120.358 54.7306C120.271 54.6927 120.202 54.6207 120.166 54.5303C120.148 54.4861 120.138 54.4384 120.137 54.3901C120.136 54.3418 120.145 54.2938 120.163 54.249C120.18 54.2043 120.206 54.1636 120.239 54.1294C120.272 54.0952 120.311 54.0682 120.354 54.0499L128.958 50.2973C129.002 50.2786 129.05 50.269 129.097 50.2692C129.145 50.2694 129.192 50.2793 129.236 50.2984C129.28 50.3174 129.32 50.3453 129.354 50.3804C129.387 50.4154 129.414 50.457 129.432 50.5027C129.45 50.5484 129.459 50.5974 129.459 50.6468C129.459 50.6962 129.45 50.7451 129.431 50.7907C129.413 50.8362 129.386 50.8776 129.352 50.9124C129.318 50.9472 129.278 50.9748 129.234 50.9935V50.9796Z" fill="#263238"/>
<path d="M127.211 53.6044L121.235 56.2083C121.146 56.247 121.045 56.2475 120.956 56.2097C120.866 56.1718 120.795 56.0987 120.758 56.0063C120.72 55.914 120.72 55.8101 120.756 55.7174C120.793 55.6247 120.864 55.5508 120.953 55.512L126.935 52.9082C126.979 52.8894 127.026 52.8799 127.074 52.8801C127.122 52.8802 127.169 52.8901 127.213 52.9092C127.257 52.9283 127.297 52.9561 127.331 52.9912C127.364 53.0263 127.391 53.0678 127.409 53.1136C127.427 53.1593 127.436 53.2082 127.436 53.2576C127.436 53.307 127.426 53.3559 127.408 53.4015C127.389 53.4471 127.363 53.4885 127.329 53.5233C127.295 53.5581 127.255 53.5856 127.211 53.6044Z" fill="#263238"/>
<path opacity="0.2" d="M91.0013 191.588L81.6783 195.654L64.1079 152.412C65.6774 150.799 66.7068 148.708 67.0452 146.445C68.0938 140.653 67.3544 122.029 81.3557 120.107C95.3569 118.186 83.5469 150.796 84.1922 157.007C84.7837 162.674 92.7624 179.126 91.0013 191.588Z" fill="black" fill-opacity="0.7"/>
<path d="M181.448 152.161L91.0013 191.588L81.6783 195.654L64.1079 152.412L23.3073 51.9961L123.077 8.50337L181.448 152.161Z" stroke="#263238" stroke-linecap="round" stroke-linejoin="round"/>
<path d="M85.3682 159.374C86.9411 153.804 93.0712 135.967 92.2646 128.079C92.199 127.422 92.0545 126.777 91.8344 126.157C89.6835 120.267 80.8916 120.838 77.5106 125.719C73.8069 131.087 70.7889 140.75 70.52 146.605C70.2823 149.542 69.3597 152.376 67.8313 154.862C67.3033 155.781 66.7078 156.656 66.0501 157.48L46.006 108.223C43.9811 109.969 42.2126 112.012 40.7564 114.287C39.9377 115.555 39.409 117.001 39.2104 118.513C38.8004 123.372 33.4903 143.361 31.3057 151.715C31.2587 151.896 31.2116 152.071 31.1713 152.238C29.0473 160.328 34.6531 190.376 33.0466 199.107C31.4402 207.838 30.4521 207.636 30.2168 213.839C30.0488 218.364 23.7976 232.122 16.7735 246.248C12.7405 254.345 8.49236 262.546 4.97692 269.223L56.2768 267.016C57.164 260.562 58.0782 253.746 58.9117 247.146C59.274 244.401 59.7856 241.679 60.4442 238.993C61.5734 234.259 62.9514 229.977 63.805 227.471C64.8951 223.79 65.7927 220.05 66.4937 216.269C72.4626 209.724 80.2866 199.441 82.5518 192.479V192.43C83.1066 191 83.2829 189.443 83.0627 187.919C82.8127 186.668 82.6754 185.395 82.6526 184.117C82.3905 176.557 84.0507 164.004 85.3682 159.374Z" fill="white"/>
<path opacity="0.4" d="M67.8449 154.911C66.2519 158.218 64.3362 161.428 63.1398 165.132C61.9433 168.835 60.6057 169.365 57.0163 172.268C53.4269 175.171 50.8055 170.388 50.8055 170.388C50.8055 170.388 55.5577 165.278 53.9781 162.43C52.3985 159.583 46.4834 152.502 46.833 148.596C47.1825 144.691 43.2503 135.932 43.2503 135.932C43.2503 135.932 52.2103 130.481 50.4694 124.096C49.5216 120.615 44.8299 116.905 40.7835 114.266C42.2396 111.991 44.0081 109.948 46.0331 108.202L66.0906 157.508C66.7382 156.69 67.3247 155.822 67.8449 154.911Z" fill="#9E54E8"/>
<path opacity="0.4" d="M35.3389 185.134C35.4598 185.552 38.3771 195.528 35.9169 199.685C33.4568 203.841 30.9294 209.355 32.1326 215.002C33.0871 219.513 25.0211 235.805 16.8005 246.262C23.8045 232.136 30.0556 218.378 30.2438 213.853C30.4791 207.65 31.4672 207.838 33.0736 199.121C34.6801 190.404 29.0406 160.342 31.1983 152.252C31.2386 152.084 31.2857 151.91 31.3327 151.729C32.8989 160.899 36.542 179.16 37.5436 185.03C38.7736 192.521 35.4464 185.447 35.3389 185.134Z" fill="#9E54E8"/>
<path opacity="0.4" d="M53.7832 245.357C59.7453 218.768 79.8095 198.383 82.525 192.479C80.2598 199.441 72.4425 209.724 66.467 216.269C65.7659 220.05 64.8684 223.79 63.7783 227.471C62.9381 229.977 61.5601 234.259 60.4174 238.993C54.6166 246.116 53.7832 245.357 53.7832 245.357Z" fill="#9E54E8"/>
<path opacity="0.4" d="M85.3684 159.374C84.0241 164.004 82.3907 176.557 82.6461 184.097C81.5908 179.362 79.5609 173.347 79.2248 164.972C78.6534 150.769 86.4237 155.893 83.735 148.868C81.0464 141.843 73.303 150.838 77.1075 136.03C79.8835 125.217 87.7949 125.315 91.8548 126.157C92.0749 126.777 92.2194 127.422 92.285 128.079C93.0714 135.967 86.9413 153.804 85.3684 159.374Z" fill="#9E54E8"/>
<path d="M12.7809 254.568C19.2068 242.391 25.4647 229.866 29.9615 216.359C30.4992 214.417 29.78 211.883 30.3245 209.94C36.4143 192.403 29.5044 174.141 30.6404 156.171C31.6016 149.091 33.7861 141.968 36.011 134.818C37.0394 129.659 37.4226 123.881 39.0694 118.687C40.7632 114.774 42.4302 110.228 46.0398 108.244C52.8959 124.514 59.7251 140.861 66.0972 157.55C68.9808 155.823 69.4581 151.98 69.9286 148.743C71.4746 140.994 73.0407 133.892 75.8706 127.369C78.7474 122.126 86.0741 119.891 90.5709 124.173C91.8603 125.512 92.5977 127.316 92.6277 129.207C91.7539 138.202 89.0249 147.308 86.2757 155.719C85.1935 159.604 84.0912 162.855 83.6274 166.712C83.6744 167.993 83.7013 168.627 83.7551 169.908C82.162 176.376 83.6274 182.071 83.2644 188.49C81.873 200.068 72.9265 208.13 66.4602 216.728C64.8604 223.196 63.2674 229.664 61.0829 236.16C58.3942 245.907 57.5338 255.515 56.613 264.879" stroke="#263238" stroke-linecap="round" stroke-linejoin="round"/>
<path d="M66.0704 157.529C64.8536 159.96 63.8633 162.506 63.1129 165.132C62.2726 168.543 58.0178 168.056 55.8198 170.172" stroke="#263238" stroke-linecap="round" stroke-linejoin="round"/>
<path d="M50.019 151.521C50.019 151.521 55.8064 153.609 59.1807 156.359C62.555 159.109 65.042 159.75 65.042 159.75" stroke="#263238" stroke-linecap="round" stroke-linejoin="round"/>
<path d="M46.3288 136.656C46.3288 136.656 51.0339 138.014 54.462 136.308C54.6184 134.571 54.913 132.85 55.3425 131.163" stroke="#263238" stroke-linecap="round" stroke-linejoin="round"/>
<path d="M55.5778 137.011C55.5778 137.011 55.6249 137.708 58.0043 137.708" stroke="#263238" stroke-linecap="round" stroke-linejoin="round"/>
<path d="M66.4671 216.269C63.2058 219.679 60.701 223.785 59.127 228.299" stroke="#263238" stroke-linecap="round" stroke-linejoin="round"/>
<path d="M30.8753 153.748C30.6603 157.926 35.3923 172.741 36.824 180.107C38.2558 187.473 38.8002 192.681 38.8002 192.681" stroke="#263238" stroke-linecap="round" stroke-linejoin="round"/>
</svg>
