<svg width="14" height="15" viewBox="0 0 14 15" fill="none" xmlns="http://www.w3.org/2000/svg">
<path d="M6.99992 5.625C7.46405 5.625 7.90917 5.82254 8.23736 6.17417C8.56554 6.52581 8.74992 7.00272 8.74992 7.5C8.74992 7.99728 8.56554 8.47419 8.23736 8.82583C7.90917 9.17746 7.46405 9.375 6.99992 9.375C6.53579 9.375 6.09067 9.17746 5.76248 8.82583C5.43429 8.47419 5.24992 7.99728 5.24992 7.5C5.24992 7.00272 5.43429 6.52581 5.76248 6.17417C6.09067 5.82254 6.53579 5.625 6.99992 5.625ZM6.99992 2.8125C9.91658 2.8125 12.4074 4.75625 13.4166 7.5C12.4074 10.2438 9.91658 12.1875 6.99992 12.1875C4.08325 12.1875 1.59242 10.2438 0.583252 7.5C1.59242 4.75625 4.08325 2.8125 6.99992 2.8125ZM1.85492 7.5C2.3264 8.53144 3.05851 9.40047 3.96803 10.0083C4.87755 10.6161 5.92798 10.9383 6.99992 10.9383C8.07185 10.9383 9.12229 10.6161 10.0318 10.0083C10.9413 9.40047 11.6734 8.53144 12.1449 7.5C11.6734 6.46856 10.9413 5.59953 10.0318 4.99172C9.12229 4.3839 8.07185 4.06168 6.99992 4.06168C5.92798 4.06168 4.87755 4.3839 3.96803 4.99172C3.05851 5.59953 2.3264 6.46856 1.85492 7.5Z" fill="#2A074D"/>
</svg>
