<svg width="26" height="26" viewBox="0 0 26 26" fill="none" xmlns="http://www.w3.org/2000/svg">
<path fill-rule="evenodd" clip-rule="evenodd" d="M10.1384 5.12028C10.6772 5.53444 10.9871 6.15202 10.9871 6.81468C10.9871 12.1561 11.1713 13.5935 11.9241 14.1404C12.4182 14.4973 13.0952 14.4937 15.3762 14.4316C16.4365 14.4011 17.7941 14.3621 19.5724 14.3621C20.2817 14.3621 20.95 14.6593 21.403 15.177C21.8236 15.6582 22.0078 16.2867 21.9107 16.9056C21.0794 22.1739 16.4999 26 11.0219 26C4.94413 26 0 21.1604 0 15.2124C0 10.4958 3.6437 5.77928 8.12241 4.70003C8.82178 4.53315 9.57341 4.68906 10.1384 5.12028ZM8.68862 6.46021C8.6488 6.46021 8.60898 6.46508 8.56916 6.47482C4.87319 7.36527 1.86665 11.2852 1.86665 15.2124C1.86665 20.153 5.97327 24.1728 11.0219 24.1728C15.5728 24.1728 19.3758 20.9996 20.0652 16.6266C20.0702 16.5901 20.0876 16.4841 19.9856 16.3659C19.8885 16.2551 19.7342 16.1893 19.5724 16.1893C17.8165 16.1893 16.4763 16.2283 15.4297 16.2575C12.896 16.3318 11.8482 16.3598 10.8129 15.6083C9.33238 14.5347 9.13773 12.7298 9.12166 7.66497L9.12044 6.81468C9.12044 6.71236 9.07564 6.62709 8.98604 6.55887C8.90266 6.49431 8.79689 6.46021 8.68862 6.46021ZM22.4625 3.33001C24.6502 5.47024 26.039 8.28287 25.9992 10.4962C25.9842 11.3598 25.3433 12.081 24.4772 12.2089C22.7873 12.4586 20.8086 12.5341 19.0577 12.5341C17.4275 12.5341 15.9927 12.4695 15.1676 12.4232C14.1298 12.3636 13.3035 11.5535 13.2437 10.5376C13.1467 8.92726 12.9364 4.83561 13.0857 1.67094C13.1268 0.751263 13.8859 0.019175 14.8142 0.00333954C17.4736 -0.0721836 20.2175 1.13619 22.4625 3.33001ZM14.9735 1.8293H14.9461C14.8092 4.89773 15.0121 8.86148 15.1067 10.4316C15.1116 10.5254 15.1813 10.5936 15.2759 10.5985C16.5552 10.6704 20.9629 10.8702 24.1326 10.4134C24.14 8.70312 22.9441 6.38383 21.1434 4.62243C19.2967 2.81719 17.1114 1.8293 14.9735 1.8293Z" fill="#7B2DCA"/>
</svg>
