<svg width="14" height="15" viewBox="0 0 14 15" fill="none" xmlns="http://www.w3.org/2000/svg">
<path d="M1.16659 3.29375L1.91325 2.5L11.6666 12.95L10.9258 13.75L9.12908 11.825C8.45825 12.0625 7.74658 12.1875 6.99992 12.1875C4.08325 12.1875 1.59242 10.2438 0.583252 7.5C0.985752 6.4 1.62742 5.43125 2.44409 4.6625L1.16659 3.29375ZM6.99992 5.625C7.46405 5.625 7.90917 5.82254 8.23736 6.17417C8.56554 6.52581 8.74992 7.00272 8.74992 7.5C8.75021 7.71285 8.71668 7.92421 8.65075 8.125L6.41658 5.73125C6.60399 5.66061 6.80125 5.62468 6.99992 5.625ZM6.99992 2.8125C9.91658 2.8125 12.4074 4.75625 13.4166 7.5C12.9405 8.79575 12.1315 9.92045 11.0833 10.7438L10.2549 9.85C11.0616 9.25211 11.7122 8.44316 12.1449 7.5C11.6733 6.46871 10.9412 5.59986 10.0317 4.99219C9.12215 4.38453 8.07177 4.06242 6.99992 4.0625C6.36409 4.0625 5.73992 4.175 5.15659 4.375L4.25825 3.41875C5.09825 3.03125 6.02575 2.8125 6.99992 2.8125ZM1.85492 7.5C2.32651 8.53129 3.05867 9.40014 3.96818 10.0078C4.87769 10.6155 5.92806 10.9376 6.99992 10.9375C7.40242 10.9375 7.79909 10.8938 8.16658 10.8063L6.83659 9.375C6.43068 9.32838 6.0519 9.1343 5.76324 8.82502C5.47457 8.51573 5.29343 8.1099 5.24992 7.675L3.26659 5.54375C2.68909 6.075 2.20492 6.7375 1.85492 7.5Z" fill="#2A074D"/>
</svg>
