<svg width="20" height="20" viewBox="0 0 20 20" fill="none" xmlns="http://www.w3.org/2000/svg">
<path d="M18.3249 12.3085L17.1333 8.8835C17.0166 8.55016 16.6999 8.3335 16.3249 8.3335H10.3333C9.94992 8.3335 9.64159 8.55016 9.51659 8.8835L8.33325 12.3085V16.6752C8.33325 17.1335 8.70825 17.5002 9.16659 17.5002C9.62492 17.5002 9.99992 17.1252 9.99992 16.6668V15.8335H16.6666V16.6668C16.6655 16.8878 16.7522 17.1002 16.9077 17.2573C17.0632 17.4144 17.2747 17.5032 17.4958 17.5043C17.7168 17.5054 17.9292 17.4187 18.0862 17.2632C18.2433 17.1077 18.3321 16.8962 18.3333 16.6752L18.3249 12.3085ZM9.67492 11.1168L10.2499 9.45016C10.2916 9.2835 10.4499 9.16683 10.6333 9.16683H16.0333C16.2083 9.16683 16.3666 9.2835 16.4249 9.45016L16.9999 11.1168C17.021 11.1793 17.027 11.2458 17.0174 11.311C17.0077 11.3762 16.9828 11.4382 16.9446 11.4919C16.9063 11.5456 16.8559 11.5894 16.7975 11.6198C16.739 11.6502 16.6742 11.6663 16.6083 11.6668H10.0666C10.0007 11.6663 9.93584 11.6502 9.87738 11.6198C9.81891 11.5894 9.7685 11.5456 9.73027 11.4919C9.69204 11.4382 9.66709 11.3762 9.65747 11.311C9.64785 11.2458 9.65383 11.1793 9.67492 11.1168ZM9.99159 14.1668C9.53325 14.1668 9.15825 13.7918 9.15825 13.3335C9.15825 12.8752 9.53325 12.5002 9.99159 12.5002C10.4499 12.5002 10.8249 12.8752 10.8249 13.3335C10.8249 13.7918 10.4499 14.1668 9.99159 14.1668ZM16.6583 14.1668C16.1999 14.1668 15.8249 13.7918 15.8249 13.3335C15.8249 12.8752 16.1999 12.5002 16.6583 12.5002C17.1166 12.5002 17.4916 12.8752 17.4916 13.3335C17.4916 13.7918 17.1166 14.1668 16.6583 14.1668Z" fill="#48C6A8"/>
<path d="M11.6667 3.75V7.5H12.5001V3.33333C12.5001 2.875 12.1251 2.5 11.6667 2.5H6.66675C6.20841 2.5 5.83341 2.875 5.83341 3.33333V6.66667H2.50008C2.04175 6.66667 1.66675 7.04167 1.66675 7.5V17.5H2.50008V7.91667C2.50008 7.68333 2.68341 7.5 2.91675 7.5H6.25008C6.48341 7.5 6.66675 7.31667 6.66675 7.08333V3.75C6.66675 3.51667 6.85008 3.33333 7.08341 3.33333H11.2501C11.4834 3.33333 11.6667 3.51667 11.6667 3.75Z" fill="#48C6A8"/>
<path d="M4.16675 9.1665H5.83341V10.8332H4.16675V9.1665ZM8.33342 4.1665H10.0001V5.83317H8.33342V4.1665ZM4.16675 12.4998H5.83341V14.1665H4.16675V12.4998ZM4.16675 15.8332H5.83341V17.4998H4.16675V15.8332Z" fill="#48C6A8"/>
</svg>
