<svg width="35" height="35" viewBox="0 0 35 35" fill="none" xmlns="http://www.w3.org/2000/svg">
<path fill-rule="evenodd" clip-rule="evenodd" d="M10.7981 25.312C15.7893 24.5828 19.2259 24.6455 24.2236 25.3375C24.5855 25.39 24.9162 25.5716 25.1547 25.8489C25.3931 26.1262 25.5231 26.4804 25.5208 26.8461C25.5208 27.1961 25.4004 27.5359 25.1831 27.8013C24.8044 28.2641 24.4164 28.7192 24.0194 29.1663H25.9451C26.0662 29.022 26.1879 28.8747 26.3112 28.7252C26.7437 28.1948 26.9796 27.5312 26.9791 26.8469C26.9791 25.3703 25.9014 24.0979 24.4234 23.8937C19.3075 23.1857 15.7317 23.1179 10.5874 23.8697C9.09409 24.0877 8.02075 25.3798 8.02075 26.8666C8.02075 27.5264 8.23586 28.179 8.64346 28.7077C8.76377 28.8637 8.88263 29.0169 9.00075 29.1671H10.8798C10.5104 28.7248 10.1502 28.2751 9.79919 27.8181C9.59062 27.5445 9.47811 27.2098 9.47909 26.8658C9.47909 26.0805 10.0435 25.4221 10.7981 25.312ZM17.4999 18.2288C18.0745 18.2288 18.6434 18.1157 19.1742 17.8958C19.705 17.676 20.1873 17.3537 20.5935 16.9474C20.9998 16.5412 21.322 16.0589 21.5419 15.5281C21.7618 14.9973 21.8749 14.4284 21.8749 13.8538C21.8749 13.2793 21.7618 12.7104 21.5419 12.1796C21.322 11.6488 20.9998 11.1665 20.5935 10.7602C20.1873 10.354 19.705 10.0317 19.1742 9.81187C18.6434 9.592 18.0745 9.47884 17.4999 9.47884C16.3396 9.47884 15.2268 9.93978 14.4063 10.7602C13.5859 11.5807 13.1249 12.6935 13.1249 13.8538C13.1249 15.0142 13.5859 16.127 14.4063 16.9474C15.2268 17.7679 16.3396 18.2288 17.4999 18.2288ZM17.4999 19.6872C19.047 19.6872 20.5307 19.0726 21.6247 17.9786C22.7187 16.8847 23.3333 15.4009 23.3333 13.8538C23.3333 12.3067 22.7187 10.823 21.6247 9.72905C20.5307 8.63509 19.047 8.02051 17.4999 8.02051C15.9528 8.02051 14.4691 8.63509 13.3751 9.72905C12.2812 10.823 11.6666 12.3067 11.6666 13.8538C11.6666 15.4009 12.2812 16.8847 13.3751 17.9786C14.4691 19.0726 15.9528 19.6872 17.4999 19.6872Z" fill="#7B2DCA"/>
<path fill-rule="evenodd" clip-rule="evenodd" d="M17.5 30.6248C24.7486 30.6248 30.625 24.7485 30.625 17.4998C30.625 10.2512 24.7486 4.37484 17.5 4.37484C10.2513 4.37484 4.37496 10.2512 4.37496 17.4998C4.37496 24.7485 10.2513 30.6248 17.5 30.6248ZM17.5 32.0832C25.5543 32.0832 32.0833 25.5542 32.0833 17.4998C32.0833 9.44546 25.5543 2.9165 17.5 2.9165C9.44558 2.9165 2.91663 9.44546 2.91663 17.4998C2.91663 25.5542 9.44558 32.0832 17.5 32.0832Z" fill="#7B2DCA"/>
</svg>
