<svg width="35" height="35" viewBox="0 0 35 35" fill="none" xmlns="http://www.w3.org/2000/svg">
<path d="M15.7465 4.1792C16.2283 3.74631 16.8532 3.50684 17.5009 3.50684C18.1486 3.50684 18.7734 3.74631 19.2553 4.1792L28.8803 12.8277C29.1539 13.0738 29.3728 13.3747 29.5226 13.7108C29.6724 14.047 29.7499 14.4109 29.75 14.7789V27.1252C29.75 27.8214 29.4734 28.4891 28.9812 28.9813C28.4889 29.4736 27.8212 29.7502 27.125 29.7502H22.75C22.0538 29.7502 21.3861 29.4736 20.8938 28.9813C20.4016 28.4891 20.125 27.8214 20.125 27.1252V21.0002C20.125 20.7681 20.0328 20.5456 19.8687 20.3815C19.7046 20.2174 19.4821 20.1252 19.25 20.1252H15.75C15.5179 20.1252 15.2954 20.2174 15.1313 20.3815C14.9672 20.5456 14.875 20.7681 14.875 21.0002V27.1252C14.875 27.8214 14.5984 28.4891 14.1062 28.9813C13.6139 29.4736 12.9462 29.7502 12.25 29.7502H7.875C7.17881 29.7502 6.51113 29.4736 6.01884 28.9813C5.52656 28.4891 5.25 27.8214 5.25 27.1252V14.7789C5.25 14.0352 5.565 13.3264 6.1215 12.8277L15.7465 4.1792ZM18.0845 5.4812C17.9239 5.33706 17.7158 5.25734 17.5 5.25734C17.2842 5.25734 17.0761 5.33706 16.9155 5.4812L7.2905 14.1297C7.19932 14.2115 7.12635 14.3116 7.0763 14.4235C7.02626 14.5353 7.00027 14.6564 7 14.7789V27.1252C7 27.3573 7.09219 27.5798 7.25628 27.7439C7.42038 27.908 7.64294 28.0002 7.875 28.0002H12.25C12.4821 28.0002 12.7046 27.908 12.8687 27.7439C13.0328 27.5798 13.125 27.3573 13.125 27.1252V21.0002C13.125 20.304 13.4016 19.6363 13.8938 19.144C14.3861 18.6518 15.0538 18.3752 15.75 18.3752H19.25C19.9462 18.3752 20.6139 18.6518 21.1062 19.144C21.5984 19.6363 21.875 20.304 21.875 21.0002V27.1252C21.875 27.3573 21.9672 27.5798 22.1313 27.7439C22.2954 27.908 22.5179 28.0002 22.75 28.0002H27.125C27.3571 28.0002 27.5796 27.908 27.7437 27.7439C27.9078 27.5798 28 27.3573 28 27.1252V14.7789C27.9997 14.6564 27.9737 14.5353 27.9237 14.4235C27.8737 14.3116 27.8007 14.2115 27.7095 14.1297L18.0845 5.4812Z" fill="#BAB9BB"/>
</svg>
