<svg width="20" height="20" viewBox="0 0 20 20" fill="none" xmlns="http://www.w3.org/2000/svg">
<path d="M4.16658 17.4998C3.93047 17.4998 3.7152 17.4271 3.52075 17.2815C3.32631 17.1354 3.19436 16.9443 3.12492 16.7082L0.791584 8.2915C0.72214 8.09706 0.753251 7.9165 0.884918 7.74984C1.01714 7.58317 1.19436 7.49984 1.41658 7.49984H5.62492L9.29158 2.0415C9.36103 1.93039 9.45825 1.84012 9.58325 1.77067C9.70825 1.70123 9.8402 1.6665 9.97908 1.6665C10.118 1.6665 10.2499 1.70123 10.3749 1.77067C10.4999 1.84012 10.5971 1.93039 10.6666 2.0415L14.3333 7.49984H18.5833C18.8055 7.49984 18.9827 7.58317 19.1149 7.74984C19.2466 7.9165 19.2777 8.09706 19.2083 8.2915L16.8749 16.7082C16.8055 16.9443 16.6735 17.1354 16.4791 17.2815C16.2846 17.4271 16.0694 17.4998 15.8333 17.4998H4.16658ZM4.58325 15.8332H15.4166L17.2499 9.1665H2.74992L4.58325 15.8332ZM9.99992 14.1665C10.4583 14.1665 10.8508 14.0034 11.1774 13.6773C11.5035 13.3507 11.6666 12.9582 11.6666 12.4998C11.6666 12.0415 11.5035 11.649 11.1774 11.3223C10.8508 10.9962 10.4583 10.8332 9.99992 10.8332C9.54158 10.8332 9.14936 10.9962 8.82325 11.3223C8.49658 11.649 8.33325 12.0415 8.33325 12.4998C8.33325 12.9582 8.49658 13.3507 8.82325 13.6773C9.14936 14.0034 9.54158 14.1665 9.99992 14.1665ZM7.64575 7.49984H12.3333L9.97908 3.99984L7.64575 7.49984ZM4.58325 15.8332H15.4166H4.58325Z" fill="#A9F35F"/>
</svg>
